<svg version="1" xmlns="http://www.w3.org/2000/svg" width="682.667" height="682.667" viewBox="0 0 512.000000 512.000000"><path d="M219.8 42.2c-.7 2.4-2.4 5.3-3.8 6.5-2.6 2.3-4.6 3-3.5 1.3 1.3-2.1-.7-3.1-3.1-1.5-1.3.8-2.3 1.2-2.2.8.2-.4-.1-1-.6-1.3-.5-.3-1.4.8-1.9 2.5-1.2 3.6-.7 3.1-3.7 4l-2.5.7 2.8-2.4c2.5-2.1 2.7-2.5 1.4-4.2-1.4-1.9-1.6-1.9-4.1-.3-1.4 1-2.6 2.6-2.6 3.6 0 1.9-2.3 3.5-3.4 2.4-1-1-.7-5.5.3-4.9 1.2.8 4.1-.4 4.1-1.6 0-.6-.7-.8-1.5-.4-1.3.5-1.4.2-.2-2.2 1.7-3.4 1.1-6.4-1.1-6-2.4.5-6.1 7.8-5.5 10.9.3 1.6-.1 3-1.3 4-1.6 1.3-1.7 1.1-1-2.2.8-4.4-.1-5.4-3.2-3.3-1.3.9-2.2 1.1-1.8.6.3-.6.2-1.3-.3-1.7-.8-.5-3.8 3.4-3.3 4.2.6.9 0 2.3-.9 2.3-.7 0-.9-.9-.6-2.3.4-1.2.2-2.9-.3-3.7-.7-1.1-1.1-.8-2 1.5-1.8 4.8-.6 7.3 3.5 7.3 2 0 3.5-.5 3.5-1.2 0-.6.8-2 1.7-3.1 1.5-1.9 1.5-1.9.9.8-.8 3.2 1.1 4.5 4.3 2.8 1.2-.7 2.2-.7 2.6-.2.3.5 4.1.9 8.5.8 7.9-.1 8-.1 9.1-3.2.9-2.3 1.3-2.6 1.6-1.3.3 1 1 1.8 1.8 1.8.7 0 1.8.6 2.4 1.4 1.8 2.1 14.9 1.6 16.6-.7.7-.9 1.6-1.7 2.1-1.7.4 0 .3.5-.4 1.2-2.1 2.1-1.5 4 1.1 3.2 2.5-.8 11.6-1.2 13.5-.6.8.3 1 1.5.6 3.8-.9 4.8 0 6.8 2.6 5.4 1.2-.7 2.2-2.5 2.6-5 .6-3.8 1.3-4.5 4.2-4.1.8.1 1.9-.3 2.7-.9.8-.7 1.6-.7 1.9-.2.3.6 3.3.9 6.7.9 5.9-.1 6.2-.2 7.5-3.1 1.3-3.1 1.5-3 1.8.9.1 1.8.8 2 8.3 2.1 8.1.1 8.2.1 9.4-2.8 1-2.5 1.4-2.7 2.1-1.4.5.9 1.5 1.6 2.2 1.6.8 0 1.7.7 2 1.6.4 1 1.2 1.4 2.3 1 1-.4.6.4-1 2-4.3 4.2-3 10.8 1.3 6.9 1.8-1.6 3.2-6.1 4.5-14.3.8-5-1-5.9-2.6-1.2-.6 1.6-1.4 3-1.8 3-.4 0-.6-1.4-.3-3 .5-3.3-1.3-4.2-2.1-1-.3 1.1-1 2-1.6 2-.6 0-.8-.6-.5-1.4.8-2.1-1.2-2.8-2.9-1.1-2 2-2.8 1.9-2-.1.4-1.2.2-1.5-.8-1.2-.8.3-1.6 1.7-1.9 3.3-.7 3.9-3 4.6-2.4.7.4-2.3.1-3.1-1.4-3.4-2.7-.7-5 .8-6.7 4.5l-1.4 3.2v-3c.1-1.7.1-3.5 0-4.2-.1-1.5-3.2-.5-4.8 1.6-1 1.4-1.1 1.3-.6-.7.3-1.2.1-2.2-.5-2.2s-1.6 1.8-2.2 4.1c-1.3 4.8-2.6 4.3-2.1-.9.3-3.2.1-3.5-1.3-2.3-.9.7-1.6 2.1-1.6 3.1 0 1.9-2.3 4.3-3.3 3.4-.3-.3.4-2.5 1.5-4.9 1.5-3.1 2.5-4.1 3.8-3.8 1 .3 2.1 0 2.5-.7.4-.7-.1-1.3-1.3-1.7-1.2-.3-2.2-1.5-2.4-2.6-.2-1.2-1.1-2.3-2-2.5-2.2-.4-4.6 4.3-5.3 10.5-.4 2.6-1 5.2-1.5 5.7-.6.6-.8-.3-.6-2.2.5-3.5-.9-5-4.1-4.8-2.8.3-3.2.6-3.6 3.6-.2 1.3-.9 2.6-1.6 2.8-.9.3-1-.6-.6-3.2.5-2.3.3-3.6-.3-3.6-1.3 0-2.2 1.3-2.7 4.2-.7 3.5-3.9 4.9-4.9 2.2-.9-2.2.3-3.7 1.9-2.4.9.8 1.4.7 1.8-.4.3-.8 0-2-.8-2.6-1.9-1.5-5.5.4-5.5 3 0 1-.4 2.1-.9 2.5-1.2.7-3.4-3.2-2.6-4.5.3-.5.1-1.1-.4-1.5-.6-.3-2.1 1-3.3 2.9-2.8 4.4-4 4.6-3.6.6.4-4-1.5-4.2-2.7-.3-.5 1.8-1.5 3.3-2.3 3.3-1 0-1.2-.6-.7-1.8.4-.9 1.4-3.3 2.1-5.2.7-1.9 1.3-2.9 1.4-2.3 0 1.8 4 1.6 4-.2 0-.8-.9-1.5-2-1.5-1.5 0-2-.7-2-2.5s-.5-2.5-2-2.5c-1.4 0-2.3 1.1-3.2 4.2zm3.2.3c0 1.4-.4 2.5-.9 2.5-.4 0-.6-1.1-.3-2.5.2-1.4.6-2.5.8-2.5.2 0 .4 1.1.4 2.5zm41.9 3.2c-.7 2.1-1.4 3.2-1.6 2.6-.3-.7.1-3 .8-5 .7-2.1 1.4-3.2 1.6-2.6.3.7-.1 3-.8 5zm-72-.3c-.9.8-1 .7-.5-.7.3-1 .7-2.4.7-3 .1-.7.3-.4.6.7.3 1-.1 2.3-.8 3zm8.1 5c0 .3-.4.8-1 1.1-.5.3-1 .1-1-.4 0-.6.5-1.1 1-1.1.6 0 1 .2 1 .4zm17.6 2.1c.1.7-.4 1.6-1.2 1.9-1.5.6-1.8-.3-.8-2.9.7-1.7 1.7-1.3 2 1zm37.2-.8c-.2.9-.8 1.8-1.5 2-.9.3-1.1-1.1-.4-3.5.1-.1.6-.2 1.2-.2s.9.8.7 1.7zm30.7 1.2c-.3 1.2-1.1 1.9-1.6 1.6-.5-.4-.5-1.4.2-2.6 1.3-2.6 2.3-1.8 1.4 1zm-36.4 9.2c-.9 2.2-1 2.2-1 .3-.1-1.1.2-2.4.6-2.7 1.2-1.2 1.4 0 .4 2.4zm53.9-.2c0 .6-.4 1.3-1 1.6-.5.3-1-.1-1-.9 0-.9.5-1.6 1-1.6.6 0 1 .4 1 .9zM174.7 43.6c-.9 1 .2 2.4 1.9 2.4.8 0 1.4-.7 1.4-1.5 0-1.5-2.1-2.1-3.3-.9z"/><path d="M246.7 43.6c-.9 1 .2 2.4 1.9 2.4.8 0 1.4-.7 1.4-1.5 0-1.5-2.1-2.1-3.3-.9zM291.6 66.1c-1.2 2.9-2.6 4.7-3 4.1-.3-.6-.2-1.3.4-1.7.5-.3 1-1.9 1-3.6 0-3.8-3.2-4-4.9-.2-.8 1.6-1.7 3.5-2.1 4.3-.4.8-2.1 1.5-3.8 1.5-3.1 0-7.2 2.9-7.2 5.1 0 .7-.5 1.6-1.1 1.9-.7.5-.8-.4-.4-2.8.8-3.8-.6-5.6-2.7-3.4-1.1 1.2-1.4 1.2-2.4-.2-1.1-1.4-1.4-1.4-3.5.4-1.2 1.1-1.9 1.5-1.6.8.4-.6.3-1.4-.2-1.8-1.4-.8-3.3 3.1-2.9 6.2.4 3.8 2.4 3.9 3.6.3 1.3-3.7 2-3.8 1.8-.3-.1 3.8 1.8 3.9 3.7.1l1.7-3.3-.3 3-.2 3 6.5.1c3.6.1 7.3-.2 8.2-.7 1-.5 1.9-.5 2.3 0 .3.6 2.3.9 4.5.9 3.4 0 4-.4 4.9-2.9 1.3-3.7 2.3-3.7 1.9-.2l-.3 2.8 7.7.1c7.6.1 7.7.1 8.7-2.8 1.2-3.5 2-3.6 1.8-.2-.3 3.9 1.7 4 3.6.2l1.7-3.3-.3 3-.2 3 6.5.1c3.6 0 7.3-.3 8.3-.8 1-.5 1.7-.5 1.7 0s4 .9 9 .9c7.4 0 9.2-.3 10.6-1.8.9-1.1 2.2-1.9 2.7-1.9.6 0 .2.6-.9 1.4-1.5 1.2-1.7 1.7-.6 2.8.9.9 1.7 1 3 .2 2-1.3 2.2-3.2.6-5.8-.7-1-1-2.5-.7-3.2 1-2.7-1.7-1.4-3.2 1.6-1.9 3.7-5.4 5.8-6.5 3.9-1.2-1.8 0-4.3 1.3-3 1.5 1.5 2.7 1.4 2.7-.3 0-2-2.5-3.7-4.3-3-1.6.6-3.3 4.1-2.9 5.6.1.5-.3.8-.9.8-.6 0-.9-1.4-.7-3.2.4-4.4-1.9-4.8-2.7-.4-.4 1.9-1.4 3.7-2.2 4.1-1.9.7-1.8.7-2.7-2.3-.6-1.8-.3-2.2 1.3-2.2 2.3 0 4.1-2.2 2.2-2.8-.9-.3-.9-.7-.1-1.7 1.6-2 .8-5.9-1.3-6.3-1.2-.3-2.3.9-3.7 4.3-1.8 4.3-2.2 4.6-5.2 4.3-2.7-.2-3.5.2-5.3 2.9-2.5 4-3.5 4.1-2.9.4.6-3.5-.8-4.7-2.9-2.6-1.3 1.3-1.6 1.3-2.1-.1-.4-1.1-1-1.2-2.5-.4-1.3.7-2.2.7-2.6 0-1-1.6-2.2-.4-2.8 2.8-.4 1.8-1.4 3.1-2.6 3.5-2.4.6-2.9-.8-.6-1.7 2-.7 1.9-4.5 0-5.3-2-.7-5.5 2.4-5.5 4.9 0 1-.5 1.8-1 1.8-.6 0-.8-1.2-.6-2.7.7-3.8-.2-4.6-3.2-2.7l-2.7 1.8 2.8-3.4c3.2-3.7 3.4-8.3.4-8.8-1.3-.3-2.4 1-4.1 4.9zm4.4-1.4c0 .5-.5 1.5-1 2.3-.8 1.2-1 1.1-1-.8 0-1.2.5-2.2 1-2.2.6 0 1 .3 1 .7zm42.5 2.3c-.4 1.2-.9 1.9-1.2 1.7-.3-.3-.2-1.5.2-2.7.4-1.2.9-1.9 1.2-1.7.3.3.2 1.5-.2 2.7zm-51.4.7c-.8 1.5-1 1.5-1.1.2 0-1.7 1-3.2 1.8-2.5.2.3-.1 1.3-.7 2.3zm-4.7 5.2c.8 1.2-.3 4.1-1.5 4.1-.5 0-.8-1.1-.7-2.5.2-2.5 1.2-3.2 2.2-1.6zm6.4 4.2c-.8.6-1.7.3-2.5-.8-1.8-2.4-1.6-3.1 1-3.5 2.5-.3 3.8 2.9 1.5 4.3zm44.8-2.4c-.4 2.4-2.6 2.9-2.6.5 0-1 .3-2.2.6-2.5 1.1-1 2.2.2 2 2zm-56.4.8c-.2 1.4-.8 2.5-1.3 2.5-1 0-1.1-1.2-.3-3.4 1-2.5 2.2-1.9 1.6.9zm27.3-1.5c-.3.5-1.1 1-1.6 1-.6 0-.7-.5-.4-1 .3-.6 1.1-1 1.6-1 .6 0 .7.4.4 1zm23.7 1.6c-.3 1.7-.8 2.2-1.5 1.5-1.1-1.1-.3-4.1 1.1-4.1.5 0 .7 1.2.4 2.6z"/><path d="M342.5 67.1c-.4.6-.4 1.3-.1 1.6.8.8 3.6-.5 3.6-1.7 0-1.3-2.7-1.3-3.5.1zM201.3 73.7c-1.6.6-1.7 3.3-.3 3.3 1.1 0 2.6-2.8 1.9-3.4-.2-.2-1-.1-1.6.1zM227.8 74.7c-3.1 3.7-4.5 11.2-2.9 15.6 1.2 3.2 3.4 3.4 6.1.7 2.1-2.1 3.5-2.7 2.5-1.1-.8 1.5 1.5 2.5 6.2 2.7 3.4.1 4.7-.3 5.9-2l1.5-2.1 1.7 2.1c1.4 1.8 2.6 2.1 6.6 2 3.1-.1 5.3-.8 6-1.8 1-1.4 1.4-1.3 3.3.8 2 2.3 2 2.3.2 4-2.2 2-2.5 5.9-.6 6.7 2.1.8 3.3-.4 4.8-4.8 1.5-4.7 3.9-7.1 5-5.3.6.9 1.2.8 2.6-.3 1-.8.3.3-1.4 2.4-3.5 4-4.2 7.1-2 8 1.7.7 3.1-.2 4.5-2.9 1.1-2.1 1.6-4.2 2.8-12.1.7-5-.8-5.9-2.5-1.3-1.2 3.6-2.5 4-1.9.5.8-4-1.1-4-2.7-.1-1.7 4.1-3 4.8-2.1 1.1.5-1.8.1-2.7-1.5-3.5-1.7-1-2.5-.8-4.4 1l-2.4 2.2-1.3-2.1c-.7-1.2-2-2.1-2.9-2.1-2 0-4.9 3.1-4.9 5.3 0 2-1.6 3.1-2.5 1.7-.4-.6.3-2.6 1.5-4.4 1.1-1.9 2.2-5.2 2.3-7.3.2-3.2-.1-3.8-1.9-4.1-1.7-.2-2.4.6-3.7 4-1 2.4-1.7 5.4-1.7 6.8v2.4l-2-2.2c-1.2-1.2-2.7-2.2-3.4-2.2-1.7 0-4.6 3.3-4.6 5.3 0 .9-.5 1.9-1 2.2-.7.5-.9-.7-.6-3.4.5-4.6-.4-5.2-2.7-1.9-1.3 1.8-1.6 2-1.6.6-.1-.9-.6-1.8-1.2-2-.9-.3-.8-1.4.2-4.1 1.1-3.2 1.1-3.9-.2-5.2-1.4-1.4-1.7-1.4-3.1.2zm1.1 5.9c-.6 1.6-1.3 2.4-1.6 1.8-.2-.6.2-2.4.8-4 .6-1.6 1.3-2.4 1.6-1.8.2.6-.2 2.4-.8 4zm24.6-1.8c-.5 2.4-2.4 7.2-2.8 7.2-.2 0 0-2.2.6-5 .5-2.7 1.3-4.7 1.8-4.5.4.3.6 1.3.4 2.3zm-25 7.1c-.3.5-.1 1.2.5 1.6 1.5.9 1.2 2.5-.5 2.5-1.5 0-2.1-3.1-.8-4.3.9-1 1.5-.8.8.2zm14.9 1.7c.7 1.9-.2 3.7-1.5 2.9-1.2-.8-1.2-4.5 0-4.5.5 0 1.2.7 1.5 1.6zm15.8-.4c.7 1.8-.2 3.9-1.3 3.2-1.2-.7-1.2-4.4 0-4.4.5 0 1.1.6 1.3 1.2zm9.8-.4c0 .5-.7 1.7-1.5 2.8-1.5 1.9-2 .8-.9-2 .6-1.7 2.4-2.2 2.4-.8zm-2.9 12.5c-.8.8-1.1.7-1.1-.4 0-2 1.3-3.4 1.8-1.9.3.7-.1 1.7-.7 2.3zm9.5.4c-1.1 1.1-1.7-.4-.9-2.3.7-1.8.8-1.8 1.1-.1.2 1 .1 2.1-.2 2.4zM112 80.8c0 1.3-.9 4.4-2 7-2.1 5.1-2.1 8.3 0 9 1.8.6 4-2.6 4-5.9 0-3.1 1.2-3.8 6.2-3.4 3.5.3 3.8.1 4.9-3.3 1.1-3.5 1.2-3.5 2.1-1.3.4 1.3 1.4 2.1 2.1 1.8.8-.3 1.9.4 2.5 1.4 1.6 2.5 3.9 2.4 5.4-.1 1.5-2.4 2.8-2.6 2.8-.5 0 1.4 1.2 2 3.4 1.6.5-.1-.4 1.2-1.8 3-3 3.5-3.1 6.2-.2 6.7 2.2.5 3.2-.9 4.6-5.9.9-3.3 4-6.3 4-3.9 0 2.1 1.8.9 3-2 1.5-3.6 2.8-4.7 2.6-2.3 0 1 .4 1.8 1 1.8s1.8.8 2.8 1.7c1.3 1.4 2.2 1.6 3.7.8 1-.6 1.9-.7 1.9-.2 0 .5 1.3.9 2.8.9 2.2 0 3.1-.8 4.5-3.6 1.5-3.2 1.6-3.3 1.3-.9-.5 4.4 1 5.5 2.8 1.9 1.6-3 3.3-4.4 2.3-1.8-.8 2.3 1 4.1 4.2 4.3 2.5.1 3.2-.4 4-2.7 1.2-3.5 2.5-3.8 1.9-.5-.8 4.2 1.9 3.9 3.4-.2l1.2-3.7.6 3.5.5 3.5 6-.1c5.3-.1 6-.3 6.3-2.2.2-1.1.9-2.5 1.5-3 .9-.8 1.2-.2 1.2 2.1 0 3.1.1 3.2 4.2 3.1h4.2l-2.5 2.9c-2.9 3.5-3.2 6.7-.5 6.7 2.4 0 3.7-1.6 4.9-6.5 2.3-8.8 2.3-11.3.1-12-2.3-.8-4.7.9-6 4.2-1.3 3.5-2.6 2.8-2.1-1.2.5-3.9-1.2-4.7-3.4-1.8-1.3 1.7-1.3 1.7-1.4 0 0-2.9-2.4-1.4-3 1.8-.3 1.6-1.1 3-1.8 3.3-.9.3-1.1-.6-.6-3.3.4-2.8.2-3.6-.8-3.3-.7.3-1.5 1.7-1.8 3.3-.8 4.3-2.9 4.4-2.3 0 .5-3.6-.1-4.2-2.7-2.5-.9.5-1.9.5-2.7-.2-1-.8-1.9-.6-3.4.8-1.7 1.6-1.9 1.6-1.3.1.3-1 .1-1.7-.5-1.7-1.2 0-2.1 1.6-2.5 4.6-.2 1-.8 2-1.5 2.2-.9.3-1.1-.5-.8-2.7.6-3.4-.7-4.9-2.7-3.2-.9.7-1.6.7-2.4-.1-.9-.9-1.7-.7-3.3.7-1.3 1.2-1.9 1.4-1.7.6.2-.7-.3-1.6-.9-1.8-.7-.3-1.4.2-1.4 1.1-.1.9-.3 2-.4 2.6-.1.5-.3 1.4-.4 2 0 .5-.6 1-1.2 1-.7 0-.8-1.1-.4-2.9.9-4.1-2.6-5.3-6.1-2l-2.4 2.2v-2.1c0-2.8-1.4-2.8-3.9-.1l-2 2.1.6-2.2c.4-1.7.2-2.1-.8-1.8-.8.2-1.5 1.4-1.7 2.6-.2 1.1-1 2.6-1.8 3.3-1.3 1-1.4.8-.9-1.9.7-4.1-2.6-5.4-5.9-2.3-2.1 2-2.2 2-3.4.1-1.6-2.6-4.7-2.5-6.6.2l-1.6 2.2v-2.2c0-2.3-2.4-3-3.6-1.1-.4.8-.9.7-1.5-.2-.8-1.2-1.1-1.1-1.9.1-.5.8-1 2.2-1 3.1 0 .9-.7 2.3-1.7 3-1.5 1.3-1.6 1.1-1-1.3 1.1-4.1 0-5.6-3.9-5.5-2.9.1-3.4.5-3.4 2.5zm3.8 3.9c-1.3 1.2-1.5 1.2-1.3-.4 0-1 .5-2.5 1-3.3.8-1.3 1-1.2 1.3.4.2 1-.3 2.5-1 3.3zm19.3.6c-1.1 1.1-2.5-2.8-1.5-4.5.5-.7 1-.3 1.6 1.2.5 1.4.5 2.7-.1 3.3zm9-1c-1.7 1.7-2.4.1-1-2.5 1.2-2.1 1.4-2.1 1.7-.4.2 1-.1 2.3-.7 2.9zm18.5.5c-2 2-2.2.1-.3-2.8 1-1.8 1.2-1.8 1.5-.4.2.9-.3 2.4-1.2 3.2zm56.4-1.9c-1.4 2.7-2.9 3.5-2.5 1.4.2-1 .4-2.1.4-2.6.1-.4.8-.7 1.6-.7 1.2 0 1.4.4.5 1.9zM111.1 93.7c-.9 1.6-1 1.6-1.1.1 0-.9.3-2.5.7-3.5.7-1.6.8-1.7 1.1-.1.2 1-.1 2.5-.7 3.5zm31.9-.6c-.7 1.1-1.4 1.9-1.6 1.6-.7-.7.7-3.7 1.7-3.7.6 0 .5.9-.1 2.1zm74 0c-.7 1.1-1.4 1.9-1.6 1.6-.7-.7.7-3.7 1.7-3.7.6 0 .5.9-.1 2.1z"/><path d="M234.7 79.6c-.9 1 .2 2.4 1.9 2.4.8 0 1.4-.7 1.4-1.5 0-1.5-2.1-2.1-3.3-.9zM370.5 87c-.7 1.2.2 3 1.6 3 .5 0 .9-.9.9-2 0-2.1-1.5-2.7-2.5-1zM161.8 92.1c-1 .5-2.2 2.8-2.8 4.9-.6 2.2-1.5 4-2 4-.6 0-.6-.9-.1-2.3.9-2.3.7-5.4-.4-6.5-1-1-5.5 4.6-5.5 6.9 0 1.9-.4 2.1-5 2.3-1.8.1-2.9 1-4 3.3-2 4.3-3 4.2-2.3-.2.4-2.8.2-3.5-1-3.5-.9 0-1.9.4-2.2 1-.3.5-1.1 1-1.6 1-.6 0-.7-.5-.4-1 .3-.6-.1-1-.9-1s-1.8.5-2.2 1.1c-.4.8-.9.7-1.5-.2-1.2-1.9-2.9 0-3.3 3.7-.6 5.7 1.5 7.3 3.3 2.4 1.1-3.4 1.8-3.9 1.8-1.3 0 5.3 1.6 5.9 3.2 1.3.5-1.7 1.3-3 1.7-3 .3 0 .4.6.1 1.3-1 2.6 1.1 4.1 6 4.3 2.6.1 5.6-.2 6.6-.8 1.1-.6 2.3-.6 3 0 .7.5 2.7.9 4.6.9 2.8 0 3.5-.5 4.4-3.1l1.1-3.1.6 2.9c.5 2.7.8 3 5.3 3.1 3.8.2 5.1-.2 6-1.6 1.4-2.3 2.7-2.5 2.7-.5 0 1.8 4.3 3.3 4.8 1.7.2-.6.9-.8 1.5-.4.7.4 3.1.8 5.4 1 3.4.2 4.6-.2 5.8-2 1.5-2.1 1.5-2.1 2.9-.2 2 2.8 11.2 3.1 12.6.5 1-1.8 1.1-1.8 3.3.3 1.8 1.8 2 2.5.9 3.5-2.5 2.8-3.2 4.9-1.9 6.6 1.2 1.7 1.4 1.6 3.4-.1 1.2-1 2.6-3.4 3.1-5.3.7-3.1 1.2-3.5 4-3.5l3.2-.1-2.5 2.6c-3.3 3.4-3.4 7-.1 7 3 0 4.8-4.2 6.1-14.3.8-5.5-.4-6.1-2.8-1.5l-1.7 3.3.3-2.9c.3-4.1-2.1-4.6-2.9-.7-.9 4.2-2.7 5.3-2.1 1.2.4-2.3.1-3.2-1.3-3.6-2-.6-5 .3-5 1.6 0 1.4-2 1.1-3.6-.6-.9-.8-2.2-1.5-2.9-1.5-2 0-4.5 2.8-4.5 5.1 0 1-.7 1.9-1.5 1.9-1.9 0-1.9-.2.6-4.9 3.1-5.9 3.4-9.7 1.1-11-1.6-.9-2.3-.6-3.6 1.3-.8 1.4-1.8 4.3-2.2 6.5-.7 4.3-1.8 5.2-2.8 2.5-1-2.6-4.9-1.2-6.6 2.3-1.5 3.2-3 4.3-3 2.3 0-.6.6-2.3 1.4-3.8 2.4-4.6 3-9.7 1.2-11.1-1.2-1-1.7-.8-3.1 1.2-.8 1.4-1.8 3.5-2 4.7-.2 1.3-.6 2.3-.7 2.4-.2.1-1.3 1-2.5 2-2.2 1.8-2.4 1.8-4.2.2-2.7-2.5-5.4-1.7-7 2.2-1.9 4.2-2.8 4.1-2.3-.3.4-3.8-1.1-4.6-3.8-2.3-.8.7-.4.1.9-1.4 3.7-4.2 2.8-10.9-1.1-8.7zm.8 5.5c-.4 1.4-.9 2.4-1.2 2.1-.3-.2-.2-1.7.2-3.1.3-1.5.9-2.5 1.1-2.2.3.3.2 1.7-.1 3.2zm23.5.5c-.6 2.4-.9 2.8-1 1.2-.1-2.4.9-5.6 1.6-5 .2.3 0 2-.6 3.8zm15.7.9c-.6 2.2-1.4 4-1.9 4s-.4-1.1.1-2.5c.6-1.4 1-2.7 1-3v-2.1c0-.8.4-1.3.9-1 .5.4.5 2.3-.1 4.6zm-46.8-.9c-1.4 2.6-1.8 2.4-1.2-.6.2-1.4.8-2.2 1.3-1.9.5.3.5 1.4-.1 2.5zm-5 7.8c-1.1 2.2-3.7 3.4-4.5 2.1-.3-.5.4-1.1 1.5-1.5 1.1-.3 2-1.3 2-2.1s.5-1.2 1-.9c.7.4.7 1.2 0 2.4zm7.7-.8c-.5 3.1-2.2 4.2-3.7 2.5-1.6-2.1-.8-4.1 1.9-4.3 1.5-.1 2 .3 1.8 1.8zm-11.7-.7c0 .3-.4.8-1 1.1-.5.3-1 .1-1-.4 0-.6.5-1.1 1-1.1.6 0 1 .2 1 .4zm26.6 3.4c-1 1-2.9-1.5-2.1-2.8.6-.9 1-.8 1.7.4.6 1 .7 2 .4 2.4zm9.4-1.8c0 1.1-.4 2-1 2-.5 0-1-.9-1-2s.5-2 1-2c.6 0 1 .9 1 2zm10.3 1.6c-.7 1.9-2.3.7-2.3-1.8 0-1.7.3-1.8 1.4-.8.8.6 1.2 1.8.9 2.6zm16 0c-.7 1.9-2.3.7-2.3-1.8 0-1.7.3-1.8 1.4-.8.8.6 1.2 1.8.9 2.6zm9.7-2.9c0 1.4-1.9 3.8-2.5 3.2-.8-.8.5-3.9 1.6-3.9.5 0 .9.3.9.7zm-2.9 12c-1.2 2-1.4 1.4-.5-1.2.4-.9.9-1.4 1.1-1.1.3.2 0 1.3-.6 2.3zm9.5-.1c-.4.9-.9 1.5-1.1 1.2-.3-.3-.3-1.3.1-2.2.4-.9.9-1.5 1.1-1.2.3.3.3 1.3-.1 2.2zM319.3 91.8c-.6.4-1.6 2-2.2 3.4-.8 2.1-.7 3.1.5 4.3 1.4 1.3 1.4 1.7 0 3.7-.9 1.2-1.6 3.3-1.6 4.6 0 1.9.5 2.3 2.2 2 1.7-.2 2.7-1.4 3.6-4.3 1.7-5.1 3.5-7 5.9-6 1 .5 3.4.9 5.3.9 3 .1 3.7-.4 5.3-3.4 1.6-3.3 1.7-3.3 1.3-.7-.4 2.9 2.6 5.8 3.9 3.7.4-.6 1.2-.7 2.3-.1 1.7.9 6.2-.5 6.2-2.1 0-.4.5-.8 1.1-.8.5 0 .8.4.5.9-.3.5.1 1.4.9 2.1 1.2 1 1.6.9 2.1-.6.3-1.1.9-2.8 1.4-3.9.7-1.7.9-1.5.9 1.1.1 4.7 1.4 5 3.4.7.9-2.1 1.6-2.9 1.3-1.7-.5 3.2 1.1 5.6 3.3 4.5 1-.6 2.3-.6 3.1-.1.9.5 1.9.5 2.7-.1.7-.7 1.8-.7 3-.1 2.2 1.1 4.1.6 7.1-2.1 1.2-1.1 2.2-1.5 2.2-.9 0 .7-.4 1.2-1 1.2-.5 0-1 .7-1 1.6 0 1 .7 1.4 2.3 1.2 2.2-.3 2.3-.8 1.5-8.1-.3-2.6-2.1-2-4 1.3-1.9 3.4-4.4 4.8-5.9 3.3-.5-.5-.7-1.8-.3-2.7.5-1.4.9-1.5 1.5-.4.5.8 1.2.9 1.8.3 1.7-1.7-.4-3.8-3.2-3.1-1.8.4-2.7 1.5-3.2 3.6-.9 4.2-2.2 3.7-1.7-.6.3-2.7.1-3.5-.8-3.2-.7.2-1.4 1.2-1.6 2.2-.4 3.1-1.4 4.7-2.4 4.1-.5-.3-.7-1.9-.3-3.5.6-3.2-1.2-4.1-3.5-1.8-.9.9-1.2.9-1.2 0 0-1.7-2-1.5-4.2.5-1.8 1.6-1.8 1.6-1.2 0 .8-2.2-1.2-2.2-2.5 0-.9 1.7-1.1 1.7-2.4-.1-2.1-2.9-6.6-1.4-7.4 2.4-.8 4.2-2.4 3.7-1.7-.5.6-3.9-.7-4.6-3.8-1.8-1.8 1.6-1.8 1.6-1.2 0 .4-1.2.1-1.7-1-1.7-1.3 0-2.2 2.2-1.3 3.3.5.9-2.7 3.7-4.2 3.7-1.4-.1-1.4-.3.2-1.5 2.5-1.8 1.8-4.9-1.1-5.3-1.8-.3-2.6.3-3.5 2.7-1.4 3.7-3.1 4.1-2.5.7.6-3.1-2.1-4.6-4.9-2.8zm2.7 2.4c0 1.9-1.8 4.3-2.5 3.6-.4-.3-.2-1.6.5-2.7 1.2-2.4 2-2.7 2-.9zm9-.3c0 .6-.4 1.3-1 1.6-.5.3-1-.1-1-.9 0-.9.5-1.6 1-1.6.6 0 1 .4 1 .9zm18.3 1.5c.6 1.5-.1 2.6-1.5 2.6-.4 0-.8-.9-.8-2 0-2.3 1.5-2.7 2.3-.6zM319.5 106c-.4 1.2-.9 1.9-1.2 1.7-.3-.3-.2-1.5.2-2.7.4-1.2.9-1.9 1.2-1.7.3.3.2 1.5-.2 2.7zM295.6 96.8c-.8 1.6-1.8 5.1-2.2 7.8-.7 5.2-1.1 6.4-2.3 6.4-.4 0-.5-1.6-.3-3.6l.4-3.5-3.8.3c-2.2.2-4 .8-4 1.5-.1.7-.2 2.2-.3 3.3 0 1.1-.6 2-1.2 2-.8 0-1-1.2-.6-3.5.7-4.5-1.8-4.9-2.8-.4-.7 3.3-3 4.8-4.7 3.1-.6-.6-.7-1.9-.3-2.9.5-1.2.9-1.4 1.2-.6.7 2 2.3 1.5 2.3-.8 0-1.6-.5-2-2.7-1.7-2.1.2-2.9 1-3.7 3.5-1.2 4.4-2.6 4.2-1.9-.2.4-2.8.2-3.5-1-3.5-.9 0-1.9.5-2.2 1.1-.5.6-1.1.4-1.9-.6-1.1-1.5-1.4-1.2-2.5 2.4-1.3 4.6-3.4 4.7-2.5.2.8-3.6-1.3-5.1-2.2-1.6-.3 1.4-1 2.5-1.4 2.5-.5 0-.6-.9-.3-2 .7-2.5-1.3-2.6-3.9-.3-1.6 1.5-1.8 1.5-1.3.1.4-.9.2-1.9-.4-2.3-1.1-.6-3.2 3.4-2.5 4.6.2.4-.3 1.3-1.2 2-1.4 1.1-1.6 1-1.4-.6.5-4.8.1-5.5-3.5-5.5-2.7 0-3.5.4-3.5 1.7 0 1-1 4.1-2.1 6.9-2.3 5.5-2 10.4.5 10.4 1.5 0 3.6-4.9 3.6-8.1 0-1.6.8-1.9 4.8-1.9 4.5 0 5-.3 6.5-3.3 1-2 1.6-2.6 1.6-1.5.1 1 .8 1.8 1.6 1.8.9 0 1.8.7 2.1 1.5.4.9 1.9 1.5 4 1.5 2.9 0 3.6-.5 4.8-3.3l1.4-3.2.1 3.2.1 3.3 6.3-.1h7.3c.8.1 1 1.6.7 4.5-.9 7.6 3.9 7.2 5.2-.5.6-3.5 1-3.9 3.8-4 1.8-.1 5.1-.2 7.5-.3 2.4-.1 4.5.1 4.8.5.2.4 1.9.3 3.6-.2 2.1-.5 3.6-.5 4.2.1 1.6 1.6 3.4 1.2 4.7-1.1.8-1.5.8-2.4 0-3.2-.6-.6-1.1-1.9-1.1-2.9 0-2.4-1.7-2.3-3 .1-1.7 3.3-4 5.1-6.3 5h-2.2l2.1-.9c2.6-1 3.8-3.8 2.3-5.6-1.7-2-5.9.4-6.6 3.8-.3 1.5-1.2 2.8-1.9 2.8-1.9 0-1.8-.9.7-4.9 2.7-4.4 3.1-11.4.7-11.9-1.1-.2-2.2.8-3.2 2.6zm3.3 1.4c-.1 2.2-2.7 8.4-2.8 6.7-.2-2.9 1.1-7.9 2-7.9.5 0 .9.6.8 1.2zm-57.3 9.4c-.3.9-.6 2-.6 2.5s-.4.9-1 .9c-.8 0-.8-2.3-.1-4.8.1-.1.6-.2 1.2-.2s.8.7.5 1.6zm46.2 1.7c-.7 1.4-1.3 1.7-1.6.9-.6-1.9.6-4.4 1.8-3.7.7.4.6 1.4-.2 2.8zM304 107c0 .5-.5 1-1.1 1-.5 0-.7-.5-.4-1 .3-.6.8-1 1.1-1 .2 0 .4.4.4 1zm7 3.5c-.7.9-1.5 1.3-1.7 1.1-.7-.7.7-2.6 1.9-2.6.6 0 .6.6-.2 1.5zm-27.8 7c-.6 3.4-1.2 3.2-1.2-.6 0-1.6.4-2.8.9-2.5.4.3.6 1.7.3 3.1zm-47 0c-.2 1.4-.6 2.5-.8 2.5-.2 0-.4-1.1-.4-2.5s.4-2.5.9-2.5c.4 0 .6 1.1.3 2.5z"/><path d="M257.7 99.7c-1.2 1.1-.8 2.3.8 2.3.8 0 1.5-.7 1.5-1.5 0-1.6-1.2-2-2.3-.8zM279.4 100.1c-.8 1.4 1.8 3.1 3 1.9.9-.9 0-3-1.4-3-.5 0-1.2.5-1.6 1.1zM341.8 105c-1.4 1.1-3 3.6-3.5 5.7-2.6 10.2 6.4 35.1 18.5 51.2 2.3 3 3.8 6 3.6 7.4-.1 1.2-.3 2.9-.3 3.8-.1.8-.7 2.4-1.5 3.4-2 2.8-3.9.8-9.3-9.9-2.4-5-5-9.4-5.5-9.7-1.2-.8-5.8 1-5.8 2.1 0 .4-1.2.5-2.8.2-3.6-.5-6.9 3.1-9.2 9.9-2.2 6.3-1.7 12.6 1.4 19.4 1.8 4.1 2.1 5.5 1.2 7.5-1.9 4.5-4.2 7-7.5 8.1-2.8 1-3.7.9-5.9-.8-3.9-2.8-7.5-10.5-6.7-14.3.9-3.9 3.5-3.9 5.7.1 2.1 3.5 4.7 3.6 6.4.1 1.5-3.1.8-5.6-2.6-9.2-7.7-8.3-20.3 2.1-18.7 15.4.6 4.5 3.8 11.9 5.7 13.1.7.4.8 2 .4 3.8-1.8 8.6-5.1 6.6-11.6-7-2.8-5.7-5.7-10.7-6.4-11-.8-.3-2.5.2-3.9 1.1-3.5 2.3-3.2 5.7 1.4 15.3l3.9 8.1-2 5.6-2.1 5.6-4.9-9.7c-6.3-12.6-6.9-13.2-10.7-11-1.6.9-3.6 1.4-4.5 1.1-2.3-.9-7.9 5.3-9.4 10.3-.7 2.2-1.2 6.3-1.2 9 0 3.6-.5 5.5-1.9 6.7-1.8 1.7-2.1 1.6-5.9-.9-7.7-5.1-16.2-3.4-21.2 4.1-2 3-2.5 5-2.5 9.9 0 5.3.5 7 3.3 11.5 3 4.8 3.2 5.6 2.1 8.7-1.5 4.7-4.8 6.7-8.3 5.2-2.1-1-2.6-1.9-2.7-5.3-.8-23.6-6.8-42.7-16.1-51.1-4.9-4.5-8.9-4.7-12.7-.6-3.6 3.8-3.9 10.5-1.1 20.9 2 7.4 8.5 21.8 13.2 29.4 2.2 3.6 2.2 3.8.5 5.5-1.4 1.5-2 1.5-3.5.5-9.8-7.1-19.6-5.4-24.4 4.3-3.1 6.3-1.9 14.9 2.9 21.2 1.9 2.7 2.3 4 1.7 6.9-.7 4-2.6 5.3-5 3.3-.9-.8-3.9-6-6.7-11.6-2.7-5.6-5.6-10.4-6.3-10.7-1.9-.7-6.4 3.3-6.4 5.7 0 1.2.9 4.2 2 6.6l2 4.4-2.1 2.3-2.1 2.3-4.1-2.7c-3.2-2.1-5.3-2.7-9.6-2.7h-5.5l-.2-4c-.7-18.3-11.2-32.4-20.5-27.5-10 5.4-3.4 33.7 13.2 56.3 5.2 7.1 10.7 11.4 16.3 12.7 4.2.9 10.3-1.5 13.4-5.4 2.6-3.4 3.8-10.7 2.4-15.3-.9-2.9-.8-3.6 1.1-5.4 2.2-2 2.2-2 3.8 0 .9 1.1 3.3 3.1 5.3 4.5 3 2 4.2 2.3 6.8 1.5 4.3-1.2 7.5-4.5 8.5-8.8.8-3.4 1.1-3.6 5.8-4.1 2.8-.3 6.5-1.4 8.3-2.5 5.7-3.5 8.8-13.2 6.3-19.8-.8-2-.5-2.9 1.5-4.8l2.4-2.3 2.8 2.1c3.8 2.8 8.4 5 10.2 4.8.8-.1 2.5-.3 3.6-.3 3.1-.3 9.2-6.7 10.5-11 1-3.6 1.2-3.7 5.2-3.4 5.2.4 11.7-3.5 14.1-8.5 1.8-3.7 2.1-11.4.6-14.2-.7-1.4-.5-2.3 1-3.6 1.9-1.7 2.1-1.7 4.2 1 2.7 3.5 8 5.7 11.6 4.9 3.5-.9 8.2-5.2 8.2-7.8 0-1 .3-1.7.6-1.3.3.3-.4 5.1-1.6 10.7-3.3 15.1-1.8 25.2 4.2 29.4 6.7 4.7 15.8-2 15.8-11.6 0-4.6-3-15.8-6.5-23.8l-2.7-6.4 2.2-7.2 2.3-7.1 2.6 1.3c1.4.8 3.6 1.4 4.8 1.4 3.4 0 8.8-5.3 10.2-10 1-3.3 1.6-4 3.1-3.5 5.5 1.7 15.5-4.6 19.8-12.5 1.7-3.1 2.2-3.4 5.6-3.2 3.1.3 4.2-.2 7.1-3.1 2.5-2.5 3.5-4.4 3.5-6.6v-3l4.8.5c4.1.5 5 .3 7.1-2 1.3-1.4 3-4.7 3.6-7.3.9-3.2 1.7-4.7 2.6-4.4.8.3 3.2.5 5.5.5 8.2.2 15.8-9.6 12.4-15.9-1.8-3.3-4.8-3.2-6.1.2-2.2 5.8-5.6 7.7-9.2 5-1.2-.8-1.9-3.1-2.2-7.7-.4-5.9-1.2-13.3-2-18.5-.6-4.4-3.9-14.3-6.2-19-3.5-6.8-6.2-10.3-9.9-12.6-4-2.4-6.5-2.4-9.6.1zm7.8 9.2c1.1 1.3 2.7 3.4 3.6 4.8 1.8 3 6.5 15.8 7.3 19.8 1.1 6 1.7 12.2 1.2 12.2-.7 0-5.2-7.7-9.3-16-7.8-15.7-9.4-28.3-2.8-20.8zm-4.6 67.7c1.6 5.7-2.7 9.3-6.3 5.3-4.5-5-5.9-13.9-3-19.5l1.6-3.2 3.5 7.4c1.9 4 3.7 8.5 4.2 10zm-73.9 43.3c4.2 8.8 4.7 13.3 1.7 15.2-3.9 2.4-9.9-7.9-9.1-15.8.4-3.8 1.8-7.6 2.9-7.6.2 0 2.3 3.7 4.5 8.2zm-73.3 1.5c5.2 7.4 9.1 18.3 11.2 31.7l.8 5.1-2.3-2.9c-4.9-6.1-14.1-27.1-14.9-33.7-.4-3.9 2.5-3.9 5.2-.2zm39.5 19.3c2.5 2.6 4.4 3.5 6.9 3.2 2.6-.4 4.1 7.6 1.8 10.3-4.2 5.1-14-3.1-14-11.8 0-5.6 1.3-6 5.3-1.7zm51.6 15c1.2 3.8 2.1 8.2 1.9 9.7-.4 4-3.3 4.1-5.3.2-1.5-2.8-1.7-8.8-.5-17.7 0-.2.4-.1.9.2.4.3 1.8 3.7 3 7.6zm-169 21.1c2.2 2.4 5 7.8 5.7 11.2 2.1 10 3.5 18 3.2 18.9-.6 1.6-9.4-16.1-11.8-23.4-2.7-8.6-1.5-11.4 2.9-6.7zm66 .9c1.6 1.7 4.4 3.3 6 3.6 6.2 1.3 5.7 10.6-.5 11.1-6.1.6-12.6-9.3-10.3-15.5 1.1-2.8 1.2-2.8 4.8.8zm-40.4 37c.8 0 1.8-.1 2.2-.3 1.5-.5 3.1 5.7 2.1 8.5-1.9 5.4-8.1 4.4-12.2-1.9-2.9-4.5-3.7-7.9-2.5-11.2l.9-2.3 4 3.6c2.2 2 4.7 3.6 5.5 3.6zM191.1 116.2c-1.2 1.2-2.4 3.8-2.8 5.7-.7 3.5-.9 4.6-1.2 5.6 0 .3-1-.4-2.1-1.5s-2.4-2-2.9-2c-1.6 0-4.1 3.1-4.1 5.1 0 1-.5 1.9-1.1 1.9-.6 0-.9-.9-.6-1.9.7-2.8-.8-4.5-4.3-4.7-2.6-.1-3 .2-3 2.3 0 1.3-.6 3.6-1.4 5.1-2.4 4.6-3 9.7-1.3 11 1.9 1.6 3.7-.4 4.4-5 .3-1.8.7-3.5.9-3.7.2-.2 3.1-.5 6.4-.6 4.6-.1 6.4-.6 7.5-2.1 1.4-1.9 1.4-1.8 3 .3 1.3 1.9 2.3 2.2 5.9 1.8l4.4-.5-2.9 2.9c-3.4 3.4-3.9 7.1-1 7.1 2.2 0 5.1-3.5 5.1-6.2s2.9-5.1 4.6-3.7c1.1.9 1.6.6 2.2-1.2.5-1.3 1.2-3.1 1.5-3.9.3-.8.6-.1.6 1.7.1 4.5 1.9 5.1 3.3 1.1l1.2-3.3.6 2.9c.5 2.7.8 3 5.3 3.1 3.8.2 5.1-.2 6-1.6 1.5-2.5 2.3-2.4 3.1.3.6 2.3.7 2.3 2.1.4.8-1.1 1.5-2.6 1.5-3.3 0-.7.5-1.3 1.1-1.3.5 0 .8.4.4.9-.3.5.3 1.2 1.4 1.6 1.8.5 1.9.8.5 4-.8 1.9-1.4 4.6-1.4 6 0 2.1.4 2.6 2.2 2.3 1.6-.2 2.4-1.4 3.2-4.8l1.1-4.5h4.5c4 0 4.6-.3 5.4-2.8 1.2-3.4 2.8-3.6 2.2-.2-.3 1.4-.2 2.5.2 2.6 5.9.9 8.8.4 10.9-1.9 1.3-1.4 2.3-2.1 2.3-1.5 0 .5-.6 1.5-1.2 2.1-1.9 1.9.9 3.3 4 2.1 1.3-.5 2.8-.7 3.3-.3.5.3 1.4-.8 2-2.5 1.3-3.7 2.8-4.1 2.2-.7-.7 3.6 1.4 4.1 3.2.6 1.8-3.5 3-4 2-.9-.5 1.4-.2 2.5.6 3 2 1.3 2.4 1.2 5.3-1.7 1.4-1.5 2.6-2.3 2.6-1.7 0 .5-.5 1.4-1.1 2-1.8 1.8-.1 3.5 2.2 2.3 2-1.1 2.6-4.5.9-5.5-.6-.4-.8-1.5-.5-2.6.9-2.8-1.2-2.3-3.2.8-3.5 5.5-4.4 5.9-4.1 1.9.3-4.5-.7-5.4-3.2-3.1-1.8 1.6-2 1.6-2 .2 0-2.2-1.9-2.2-3.6 0-1.3 1.7-1.3 1.7-1.4-.2-.1-2-.1-2-1.5-.1-.8 1.1-1.5 2.8-1.5 3.8s-.4 1.8-.8 1.8c-1.3 0-3.3-5-2.6-6.2.4-.6.1-.9-.7-.6-.8.3-1.9 1.4-2.4 2.5-.6 1.1-1.9 2.8-2.9 3.9-1.9 1.8-1.9 1.8-1.4-2.4.7-5.1-1.1-5.4-2.4-.4-1.1 4.1-3.1 4.2-2.4.2.6-4-1-4.7-4.1-1.9-2.3 2.1-2.2 1.9.6-2 3.4-4.8 3.9-7.2 1.8-9-2.6-2.1-5.2 2.4-6.3 10.7-.8 6.4-1.8 7.5-2.4 2.7-.5-3.6-.7-4-3.7-4.1-2.6-.1-3.3.2-3.3 1.7 0 1.1-.4 1.9-1 1.9-.5 0-.7-.6-.4-1.4.9-2.3-1.6-2.9-3.7-1-1.7 1.6-1.9 1.6-1.9.1 0-2.4-1.7-2.1-2.3.4l-.6 2-2-2c-1.2-1.2-2.7-2.1-3.5-2.1-1.8 0-3.7 2.4-3.9 4.9-.1 1.2-.7 2.1-1.3 2.1-.9 0-1.1-1.1-.7-3.5.6-3.8-.5-4.5-3.1-1.9-1.5 1.4-1.6 1.4-1.6 0 0-2-1-2-3.8-.1-2 1.4-2.1 1.4-1.6 0 .3-.8.1-1.5-.5-1.5s-1.3 1.1-1.7 2.5c-.3 1.3-1.2 2.9-1.9 3.5-1.2 1-1.3.5-.8-2.4.7-4.4-1.1-4.8-2.6-.6-1.4 4-3.2 4-2.1-.1.7-2.2.6-2.9-.3-2.7-.7.3-1.6 1.9-2.2 3.6-.6 2-1.6 3.2-2.7 3.2-1.6 0-1.5-.5.7-4.6 2.5-4.7 3.3-10.8 1.6-11.9-.6-.3-1.9.4-3 1.7zm1.5 5.2c-.4 1.9-1.1 3.8-1.7 4.1-.9.6-.7-1.5.8-6.8.8-3.2 1.6-1 .9 2.7zm59 .3c-1.8 3.3-2.1 1.7-.5-2.4.6-1.5 1.3-2.3 1.6-1.6.2.6-.3 2.4-1.1 4zm-77.6 6.7c0 .8-.6 1.9-1.3 2.5-1.1.8-1.3.6-1.1-1.2.1-1.2.3-2.6.3-3 .2-1.3 2.1.3 2.1 1.7zm50 1.3c0 .7-.7 1.3-1.5 1.3-1.5 0-2.1-3.1-.8-4.3.8-.8 2.3 1.2 2.3 3zm-40.7.9c-.4 1.1-.9 1.2-1.9.4-.7-.7-1-1.8-.7-2.6.4-1.1.9-1.2 1.9-.4.7.7 1 1.8.7 2.6zm59.7-2.8c0 .5-.6 1.7-1.4 2.7-1.3 1.8-1.3 1.7-1.3-.8 0-1.6.5-2.7 1.3-2.7s1.4.4 1.4.8zm-74.4 9.8c-.6 3.1-1.6 4.5-1.6 2.1 0-1.8 1-4.7 1.6-4.7.3 0 .2 1.2 0 2.6zm68.6.4c-.2 1.6-.6 3-.8 3-.2 0-.4-1.4-.4-3 0-1.7.4-3 .8-3 .5 0 .7 1.3.4 3zm-40.2 1.1c-.7 1.1-1.4 1.9-1.6 1.6-.7-.7.7-3.7 1.7-3.7.6 0 .5.9-.1 2.1z"/><path d="M258.6 120.5c-.6 1.7.9 2.9 2.4 2 1.4-.9 1.2-2.2-.4-2.8-.8-.3-1.7.1-2 .8zM104 123.5c-2.4 2.5-2.9 3.5-1.8 3.5.9 0 2-.5 2.3-1 .3-.6 1-1 1.6-1 .5 0 .9.4.9 1 0 .5-.6.9-1.2.7-.7-.1-1.3.5-1.3 1.3s1 1.6 2.2 1.8l2.3.3-2.1 2.8c-1.7 2.3-1.9 3.3-1 4.9 1.5 2.8 3.3 1.9 6-2.8 2-3.5 2.5-3.9 4.2-2.9 1.2.6 2.7.8 3.4.5.7-.2 1.9.2 2.6 1 .7.8 2.2 1.4 3.3 1.3 1.2-.1 3.4.3 4.9 1 1.6.6 3.2.9 3.7.6.5-.3 1.1-.1 1.5.5.3.5 1.5 1 2.5 1 1.6 0 1.9.7 1.8 3.5-.1 1.9.2 3.8.5 4.1 1.8 1.9 6-3.2 6.8-8.3.6-3.5-1.5-2.8-2.2.7-.4 1.8-1.1 3.6-1.7 4.2-.7.7-.7-.3-.1-3.2 1.2-5.5 1.6-6 4-6 1.7 0 1.8.5 1.3 4-.5 3-.3 4 .7 4.2 2.4.2 3.3.5 5.9 1.5 2.9 1.2 4.6.8 5.4-1.3.4-1.1 0-1.3-2-.8-2.3.6-2.5.4-2.2-1.6.1-1.3.9-2.5 1.6-2.8.7-.2 1 .2.6 1.2-.3.9-.2 1.6.4 1.6 1.3 0 2.2-3.9 1-4.6-1.8-1.1-5.3.5-7.1 3.3-1.8 2.8-1.8 2.8-1.4.3.2-1.4.8-3.2 1.1-4.1.5-1.2.1-1.8-1.4-2.2-1.3-.3-1.9-1-1.5-1.7.5-.9 1-.9 1.8-.1 1.6 1.6 3.7 1.3 3.7-.4 0-.8-.6-1.5-1.3-1.5-.9 0-1.2-1-.9-3 .4-2.5.1-3-1.6-3-1.1 0-3.2 1.5-4.6 3.2-1.5 1.8-3.2 4-3.9 4.8-.6.8-1.1 2-.9 2.6.3 1.4-2.6 3.9-3.5 3.1-.3-.4-.1-1.2.4-1.9s1.3-2.1 1.6-3.1c1-2.7-2.2-2.1-3.5.7-1.9 4.3-6.7 4-5.3-.3.3-1.2 1.1-1.9 1.6-1.5.5.3.6 1 .3 1.6-.4.6-.1.9.7.6 2-.7 1.7-4.2-.3-4.6-.9-.2-3 1.1-4.8 2.8-1.7 1.7-3.6 2.7-4.2 2.4-.7-.5-.4-1 .9-1.5 2.9-1 3.7-2.7 2.3-4.4-1.8-2.2-3.8-1.8-6.4 1-2.9 3.1-4.1 3.3-2.2.2 1.9-2.8 1-4.3-3.1-5.1-2.9-.7-3.3-.5-3.9 1.9-.9 3.5-2.9 2.6-2.9-1.3 0-4.1-1.3-4-5.5.3zm45.8 3.4c-.7 1.2-1.6 2.1-2.1 2.1-.8 0-.2-1.4 1.6-3.8 1.6-2 2-.6.5 1.7zm-32.8.1c-.6 1.1-1.5 2-1.9 2-.5 0-.7-.9-.4-2 .3-1.1 1.2-2 2-2 1.1 0 1.1.4.3 2zm9 1c0 .5-.5 1-1.1 1-.5 0-.7-.5-.4-1 .3-.6.8-1 1.1-1 .2 0 .4.4.4 1zm-16 4.8c0 .5-.7 1.7-1.5 2.8-1.4 1.8-1.4 1.7-.4-.9 1.2-2.7 1.9-3.4 1.9-1.9z"/><path d="M140 125c-1.2.7-1.2 1.2-.2 2.2.9.9 1.5.9 2.4 0 .8-.8.9-1.5.2-2.2-.5-.5-1.5-.6-2.4 0zM312.4 133.5c-.8 2-1.6 5.5-1.8 7.7-.2 2.6-.9 4.4-2.1 5-2.2 1.3-4-.4-3-2.9.5-1.2.9-1.4 1.2-.6.7 2 2.3 1.5 2.3-.6 0-4.4-5.5-2.8-6.5 1.9-.4 1.7-1 2.8-1.5 2.5-.5-.3-.5-1.9 0-3.5 1.2-4.3-.7-4.7-2.4-.5-1.8 4.3-3 4.6-2.1.5.5-2.3.3-3-.9-3-1.5 0-2 1.1-1.7 3.6.1.6-.6 1.7-1.5 2.5-1.5 1.2-1.6 1-1.1-2.4.6-4.2-.4-5.4-2.6-3.2-1.7 1.7-3.1 2-2.2.6.3-.5.1-1.2-.5-1.6-1.4-.9-3.2 4.4-2.5 7.2.6 2.4 2.5 3.2 2.5 1 0-.7.7-2.2 1.5-3.3 1.3-1.8 1.4-1.7 1.2 1.1l-.2 3 23.8.1c17.9.1 24-.2 24.8-1.2.6-.8.6-1.4 0-1.8-.5-.4-1.2-.2-1.6.4-.9 1.5-2.2 1.2-2.9-.6-.8-2.2.4-4 1.5-2.3.8 1.2 1.1 1.1 1.9-.1.7-1.1.5-1.8-.6-2.7-2.9-2.2-5.1.1-6.3 6.4-.1.5-.5.1-1-.6-.6-.9-.6-2.2-.1-3.1.5-.9.5-2.2 0-2.9-.6-1.1-1-.9-1.9.7-.6 1.1-1.1 2.7-1.1 3.6 0 .8-.9 1.8-2.1 2.1-2.8.9-3.5-.1-1-1.5 2.3-1.2 2.7-3 1-4.7-1.8-1.8-5.9.5-5.9 3.3 0 2.5-1.4 3.9-3 2.9-.6-.4.1-2.6 1.6-5.5 2.9-5.5 2.9-10.3.1-10.8-1.2-.3-2.2.7-3.3 3.3zm3.2 2.9c-.4 1.9-1.1 3.8-1.7 4.1-1 .7-.7-2.4.6-6.6 1-3.2 1.8-1.4 1.1 2.5zm5.9 6.6c-.3.5-1.1 1-1.6 1-.6 0-.7-.5-.4-1 .3-.6 1.1-1 1.6-1 .6 0 .7.4.4 1z"/><path d="M326.5 136.1c-1 1.5.1 2.3 2 1.5.9-.3 1.3-1 1-1.6-.8-1.3-2.2-1.3-3 .1zM185 137.3c-2.5 2-4.9 6.3-6.1 11.1-.8 3.4-1.6 4.6-3 4.6-2.5 0-2.4 2.5 0 4.9 2.2 2.2 1.8 5.1-1 7.7-1.1.9-2 1.5-2.2 1.3-3.3-5.6-4.7-9.2-4.1-11.3.8-3.5-2-4.1-4.6-.9-1.1 1.4-2 3-2 3.5s-1.3 2.9-3 5.3c-1.6 2.4-3 4.8-3 5.4 0 2.3 3 1 5.8-2.5 2.9-3.5 3.1-3.5 4.1-1.6 1.3 2.4 1.4 3.2.4 3.1-4.4-.7-6.4 2.3-3 4.5 1.9 1.3 2.8 1.3 7.2-.1 2.8-.9 5.7-2.2 6.6-2.9 1.3-1.1 1.8-1 3.2.6 1.9 2.2 6.6 2.6 9.9.9 1.4-.8 2.3-.8 3.1 0 1.6 1.6 5.3 1.4 7-.4 1.3-1.3 1.6-1.3 2.7 0 1.7 2.1 4.7 1.9 7.8-.5l2.5-2 2.2 2c2.4 2.2 8.4 2.7 10.3.8.9-.9 1.5-.9 2.4 0 2.6 2.6 6.7 1.4 11.2-3.3 3.4-3.5 4.5-4.1 5-2.9 1 2.6.7 3.4-1.3 3.4-1.1 0-2.2.4-2.5.9-.9 1.4.4 4 2.2 4.3 2.6.5 9.8-1.6 11.9-3.4 1.7-1.5 2-1.5 4.2.3 2.5 2.1 7.1 2.5 10.1.9 1.4-.7 2.5-.7 3.9.2 1.6 1 2.7 1 5.7-.1 2.6-.9 3.9-1 4.7-.2 3.1 3.1 12.8-.1 16.3-5.5 1.7-2.5 1.8-2.5 3.1-.8 1.8 2.4 1.6 2.9-.9 3.1-3.2.3-4.1 2.5-1.7 4.5 1.6 1.4 2.6 1.5 4.7.7 1.5-.6 3-1.6 3.4-2.2 1.4-2.2.8-6.4-1.4-9.2-1.8-2.3-2-3.2-1.1-5.5.9-2.4.8-2.9-.8-3.3-2-.5-5.9 3.4-5.9 5.9 0 1.9-5 7.5-7.7 8.5-5 1.9-8.1-2.9-5.3-8.2 1.4-2.5 3-2.5 3 0 0 2.7 1.5 3.4 3.3 1.7 2.2-2.2 1-6.5-2-7.2-5-1.3-9.9 3.1-10.7 9.5-.5 4.1-1.9 5.7-3.5 3.8-.8-1.1-.9-2.6-.2-5.8 1.6-6.8 1.4-8.1-1.1-7.7-2.2.3-3.1 2.3-4.2 8.8-1.2 7-8 7.7-9.1.8-.4-2.1-.5-4.2-.2-4.5.3-.3 2.3-.7 4.3-.9 5.2-.5 7.7-4.4 2.9-4.4-3 0-3.1-.4-.5-4 4.1-5.7 2.1-14.1-2.9-12.5-3.3 1-7.7 9.3-8 15.2-.1.7-1 1.3-2 1.3-2.7 0-3.4 2.8-1.1 4 2.8 1.5 2.6 6.1-.5 9-2.2 2-2.5 2.1-2.5.6 0-1-.9-3.1-2.1-4.7-1.2-1.8-1.9-4-1.7-5.9.2-1.6 0-2.9-.4-3h-2.1c-.8 0-2.4 2.2-3.7 5-1.3 2.7-3.6 6.1-5.1 7.6-2.5 2.4-2.9 2.5-3.5 1-.4-.9-.2-4 .4-6.9 1.1-5.8.9-6.7-1.8-6.7-2 0-4 5-4 9.7 0 3.2-4.2 5.8-6.9 4.3-1.2-.6-2.1-2.1-2.2-3.3 0-1.2-.2-3-.4-4-.2-.9 0-1.7.3-1.8.4-.1 1.9-.2 3.3-.3 4-.4 5.9-1.4 5.9-3.1 0-.9-.9-1.5-2.6-1.5h-2.5l2-2.6c4.1-5.3 3.5-14.4-1-14.4-2.6 0-6.7 5.5-8.4 11.5-1.1 3.7-2.2 5.4-3.6 5.8-2.2.6-2.3 4.4-.1 4 .7-.2 1.2 0 1.3.5 0 .4.2 1.5.4 2.5.4 2.1-4.3 8-5.7 7.1-.8-.5-.4-6.1.8-10.6.3-1.2-.5-2-3.2-2.8-3.2-1.1-4.2-1-6.9.4-3.1 1.7-6.5 7-6.5 10.1 0 1.6-2.6 3.2-5 3.1-1.9-.1-3.9-4.2-3.6-7.5.3-2.2.8-2.5 3.8-2.6 4-.1 5.8-1.1 5.8-3.1 0-.8-1-1.4-2.5-1.4h-2.4l2-3.5c1.9-3.1 3-10.8 1.8-11.8-1.3-1.3-4.6-1.5-5.9-.4zm2 7.7c-.9 3.2-2.9 7-3.6 7-.5 0 .3-3.8 1.8-8.9.7-2.2 1.3-2.9 1.8-2.1.4.7.4 2.5 0 4zm78.7-1.1c-.3 2.2-1.3 5-2.2 6.3-1.7 2.3-1.7 2.2-1.1-2.1.7-4.4 2.2-8.1 3.3-8.1.3 0 .3 1.8 0 3.9zm-42.7-1.3c0 1.9-2.9 8.2-4 8.9-.5.3-.7-.1-.6-.7.6-3.3 1.9-8.4 2.3-9.1.8-1.3 2.3-.7 2.3.9zm-21.4 18.6c-.8 4.9-2.2 6.9-4.2 6.1-1.7-.6-1.2-4.5 1.1-7.9 2.5-3.8 3.9-3 3.1 1.8zM120.4 138.4c-1 .7-3.9 1.6-6.3 2-5.6.7-9.3 3-8.4 5.2.6 1.6 3.8 1.6 8.8 0 1.5-.5 2.6.2 4.4 2.9 2.2 3.2 2.7 3.5 6 2.9 2-.3 3.1-.2 2.4.3-1.6 1.1-1 9.2.8 10.4.8.5 2.1.9 3 .9 2.3 0 3 1.1 1.7 2.7-1.2 1.5.4 6.3 2.2 6.3.5 0 1 .8 1 1.8 0 1.1.9 2.7 2 3.7s2 2.4 2 3.2c0 .7.7 1.6 1.5 1.9.8.4 1.2 1.1.8 1.7-.4.7.9.8 3.8.4 3.9-.5 4.2-.4 2.5.8-1 .8-2.3 1.6-2.9 1.8-.6.2-.7.9-.3 1.5.5.9 1.8.6 4.7-.9 4.4-2.2 4.7-4 .8-4.9-2.2-.6-2.3-.6-.4-1.3 1.6-.7 1.7-1 .5-1.7-.8-.5-2.2-.5-3.2.1-1.1.6-2.7.9-3.6.7-1.3-.3-.8-.9 1.6-2.1 4-2.2 3.4-4-.8-2.5-3.2 1.1-6 .5-6-1.1 0-.7.8-.7 2.3-.2 2.6 1 5-.9 4.1-3.3-.8-2-3.6-2.8-6.7-2.1-3.2.8-4.5-1.2-2.3-3.3 1.6-1.6 1.8-1.6 3 0 1.5 2.1 3.8 2.4 3 .5-.3-.8.4-1.3 1.7-1.4 2.8-.2 5.4-2.7 4.4-4.3-.9-1.5-12.1-.7-11.8.9.2.6-.2 1.1-.8 1.1-.6 0-.8-1.1-.4-2.9.8-3.6-1.7-6.4-4.9-5.6-1.9.6-2 .5-.3-.8 2.4-2 2.1-3.4-1-4.5-2.1-.8-2.3-1.1-.8-1.1 1.4-.1 1.6-.4.7-1.3-.9-.9-1.8-.9-3.7 0-3.1 1.4-4.5 1.5-4.5.3 0-.5.9-1.1 2-1.4 2.7-.7 3.7-3.7 1.8-5.1-.8-.6-1.5-1.5-1.6-1.9-.1-1.6-.8-1.7-2.8-.3zm2.4 3.8c-.3.7-1.5 1.4-2.9 1.6-2.3.2-2.3.2-.5-1.3 2.4-1.8 3.9-2 3.4-.3zm-10.6 1.4c-1.2.8-2.8 1.3-3.5 1.1-.7-.3-.1-.9 1.3-1.5 3.7-1.6 4.7-1.4 2.2.4zm19.7 15.5c-.8 1.6-1.4 1.8-2.2 1-.9-.9-.8-1.4.3-2.1 2.4-1.6 3.1-1.1 1.9 1.1zM145 163c-2 1.3-3.3 1.3-2.5 0 .3-.6 1.4-1 2.3-1 1.5 0 1.5.2.2 1zm-2.5 9c.3.5-.1 1-1 1s-1.3-.5-1-1c.3-.6.8-1 1-1 .2 0 .7.4 1 1z"/><path d="M230.3 144.7c-1.5.6-1.7 5.2-.3 5.4 3.4.5 4.4.2 5.3-1.2 2.1-3.4-.9-5.9-5-4.2zM272.9 146.2c-.9 1.7-.8 2.4.5 3.4 3.4 2.4 8.1-1.1 5.5-4.2-1.7-2.1-4.7-1.7-6 .8zM91.8 146.7c-1.8 2.1-2.5 4.2-3.3 9.8-.6 4-3 6.9-4.7 5.9-.4-.3.1-1.3 1.3-2.3 2.6-2.1 2-5.1-.9-5.1-2.2 0-3.8 1.6-4.3 4.4-.7 3.3-2.4 2.8-2.4-.6 0-3.1-.2-3.3-3.5-3.3-2.3 0-3.4.4-3.2 1.3.4 1.9-1.7 5.4-2.9 4.7-.5-.4-.7-1.1-.4-1.6 1.4-2.1 1.3-4.9-.1-4.9-.8 0-1.5.7-1.5 1.5-.1.8-.3 1.9-.4 2.5-.1.5-.3 1.4-.4 2 0 .5-.8 1-1.6 1-1.1 0-1.2-.5-.5-2.4 1.1-3-.3-4.4-4.2-4.4-2.7 0-3.2.8-2.9 3.5.1.7-.8 3.1-1.9 5.3-2.4 4.7-2.3 9.3.2 9.8 1.2.2 2-.9 3-4.5 1.2-4.2 1.7-4.8 4.1-4.9 1.5-.1 3-.4 3.4-.7 1.6-1.7 3 1.6 2.5 5.8-.4 3.6-.1 4.5 1 4.5 2.7 0 4.1-2.9 4.7-9.4.1-.4 1.2-.6 2.5-.4 1.4.3 3 .1 3.7-.3.7-.4 2.1-.3 3 .2 1.1.6 2.8.5 4.5-.1 1.7-.7 3.1-.7 3.8-.1.7.6 1.8.6 2.6.1s2.1-.5 3.1.1c1.1.5 2 .5 2.3 0 .3-.5 1.4-.7 2.5-.4 1.4.4 2-.3 2.6-2.9l.8-3.3.5 3c.5 3.5 1.9 4.7 4.2 3.5.9-.5 2.2-.5 3 0 .7.4 2.4.4 3.7-.1 1.6-.6 3-.5 4.3.3 1.6 1 2.3 1 3.6-.4 1.4-1.3 1.4-1.9.3-3.9-.7-1.3-1.2-3-1.1-3.7.5-2.3-1.7-1.2-3.2 1.6-.8 1.5-2.6 3.3-4 4-3.1 1.4-3.3.9-.6-1.8 2.2-2.2 1.7-5-1-5-2 0-4 2.1-4.4 4.6-.2 1-.8 2-1.5 2.2-.9.3-1-.6-.6-3.2.6-2.9.4-3.6-.8-3.6-.9 0-2.3 1-3.2 2.2l-1.7 2.3.7-2.4c.5-1.7.4-2.2-.6-1.9-.8.3-1.6 1.7-1.9 3.3-.3 1.6-1.1 3-1.9 3.3-1.1.4-1.2-.3-.7-3.3.6-2.8.4-3.6-.6-3.3-.7.3-1.4 1.7-1.6 3.2-.3 2.5-2.6 4.5-3.8 3.3-.3-.2.5-2.5 1.7-5 1.7-3.4 2.6-4.4 3.5-3.6.8.7 1.4.7 1.9-.1.9-1.5-.3-3-1.9-2.4-.8.3-1.4-.1-1.3-.8.1-2.9-.3-4.8-1.1-4.8-.5 0-1.6.8-2.4 1.7zm1.8 3.8c-.9 3.3-2.5 7.5-2.9 7.5-.3 0-.1-1.9.4-4.3.4-2.3.8-4.5.9-5 0-.4.5-.7 1.1-.7.7 0 .9 1 .5 2.5zM61 158.2c0 1.9-1.8 4.3-2.5 3.6-.9-.9.4-4.8 1.6-4.8.5 0 .9.6.9 1.2zm14.6.4c-.3.9-.6 2-.6 2.5s-.4.9-1 .9c-1.1 0-1.4-3.3-.3-4.3 1.2-1.3 2.5-.7 1.9.9zm9.4-.7c0 .5-.7 1.1-1.5 1.5-1.5.5-2-.5-.8-1.7.9-1 2.3-.9 2.3.2zm28.9 1.2c-1.6 1-2.3.4-1.4-1 .3-.6 1.1-.8 1.7-.5.6.4.5.9-.3 1.5zm8.1 1.8c0 .5-.7 1.1-1.5 1.5-1.5.5-2-.5-.8-1.7.9-1 2.3-.9 2.3.2zm-66.4 6.3c-.3 1.3-.5 2.9-.5 3.6-.1.7-.5 1.1-1.1.7-.5-.3-.7-1.2-.5-2 .3-.8.7-2.2 1-3 .7-2.3 1.5-1.8 1.1.7zm14.7 1c-.6 3.9-.9 4.4-1.5 2.6-.5-1.3.7-5.8 1.6-5.8.2 0 .2 1.5-.1 3.2z"/><path d="M67.3 150.7c-2 .7-1.5 2.3.7 2.3 1.1 0 2-.4 2-.9 0-1.3-1.2-1.9-2.7-1.4zM419.2 159.3c-.7.8-1.5 2.8-1.8 4.6-.4 1.7-1.5 3.6-2.6 4.2-1.1.6-2.4 2.4-3 4-1.4 4-2.8 3.6-2.1-.6.7-4.4-.8-4.5-3-.3l-1.7 3.3.2-3.2c.4-4.4-1.3-4.6-2.7-.3-1.4 4.3-4 5.1-4.7 1.5-.4-2-.1-2.5 1.6-2.5 2 0 2.2-.5 2.1-5.3 0-6.3-2.1-7.1-4.7-1.7-.9 1.9-2.1 4-2.7 4.6-.6.8-.6 1.5.1 2.2 1.2 1.2.4 4.2-1.2 4.2-.6 0-1.3-1.4-1.7-3-.7-3.8-2-3.5-5 1.3-2.3 3.6-1.8 5.2.7 2.2.7-.8 1.8-1.5 2.4-1.5.6 0 .3.7-.8 1.5-2.5 1.9-1.1 3.8 2.3 3 3.3-.9 21.5-1 22.9-.1.6.3 1.3.2 1.6-.2.4-.7 6.7-.8 8.6-.1.3.1 1 0 1.5-.1.6-.1 2.9-.2 5.2-.1 3.3.1 4.5-.3 5.7-2 .9-1.3 1.9-1.9 2.3-1.5.5.5.2 1.1-.4 1.3-2 .7-1.5 3.3.6 3.3 2.4 0 3.6-3.3 2.1-6-.6-1.1-.8-2.5-.5-3 .3-.6-.1-1-1-1-.8 0-2 1.1-2.5 2.4-.9 2.5-3.8 4.6-6.2 4.6-.7 0-.1-1 1.4-2.1 3.1-2.3 2.8-4.9-.6-4.9-2.6 0-4.6 1.8-4.6 4.1 0 1-.5 2.1-1.2 2.5-.8.5-.9-.3-.5-2.9.4-2.8.2-3.7-.9-3.7-.8 0-1.4.4-1.4 1 0 3.3-1.9 6.5-3.1 5.3-.6-.6-.4-2.1.6-3.9.8-1.6 1.5-3.5 1.5-4.2 0-.9.5-1 1.9-.2 1.3.7 2.2.7 2.6 0 .9-1.5-.5-3.2-2-2.6-.9.3-1.5-.4-1.7-2.1-.4-3.1-2-4-3.6-2zm.8 7.4c-1.1 1.7-1.1 1.7-.6 0 .3-1 .7-2.8.7-4 .2-2.2.2-2.2.6 0 .2 1.2-.1 3-.7 4zm-20.4-2.1c-.4.9-.9 1.5-1.1 1.2-.3-.3-.3-1.3.1-2.2.4-.9.9-1.5 1.1-1.2.3.3.3 1.3-.1 2.2zm32.4 5.8c0 .3-.4.8-1 1.1-.5.3-1 .1-1-.4 0-.6.5-1.1 1-1.1.6 0 1 .2 1 .4zm-15.4 2.3c-.3 2.1-2.6 3-2.6 1 0-.7.3-1.7.7-2 1.2-1.2 2.1-.7 1.9 1zM82 171.3c-1.1 1.7-2.3 4.9-2.6 7l-.7 3.8-2.3-2.1c-2.9-2.8-5.9-1.9-7.4 2.3l-1.1 3.2-1.5-2.8c-.8-1.5-1.2-3.2-.8-3.9.4-.6.1-.9-.7-.6-.8.3-1.9 1.4-2.4 2.5-.6 1.2-1.7 2.8-2.4 3.7-1.7 2.1-.3 2.1 2 0 1.1-1 1.9-1.2 2.4-.5.3.6-.1 1.1-.9 1.1-.9 0-1.6.5-1.6 1 0 1.7 2.9 2.3 5.4 1.2 1.3-.6 2.9-.6 3.8-.1 1.1.6 2.4.2 4.1-1.1 1.4-1.1 2.7-2 2.9-2 .1 0 .4 1.8.5 4 .3 8.2 4.8 8.8 4.8.7 0-4.7 1.7-5.5 4.7-2.5 1.4 1.4 2.3 1.5 4.2.8 1.5-.6 2.8-.6 3.1 0 .9 1.4 3.5 0 3.5-1.9.1-1.4.2-1.4 1.1.1 1.3 2.4 3.1 2.3 4.8-.3l1.3-2.2 2.5 2.7c1.4 1.5 2.9 2.3 3.6 1.9.6-.4 2.8-.6 4.8-.4 3.3.2 3.8-.1 4.9-3.1 1-2.7 1.3-3 1.9-1.5.4 1 1 1.7 1.3 1.5.4-.2 1.8.8 3.2 2.1 2.4 2.3 2.6 2.3 5.1.7 3.1-2 2.7-3.3-.4-1.6-2.7 1.4-2.7 0-.1-2.3 2.1-1.7 1.7-4.7-.5-4.7-2.4 0-4.5 1.2-4.5 2.6 0 .8-.4 1.4-1 1.4-.5 0-.7-.6-.4-1.4.9-2.3-1.6-2.9-3.7-1-1.4 1.2-1.9 1.4-1.7.5.2-.7-.3-1.6-.9-1.8-.7-.3-1.4.2-1.4 1.1-.1.9-.3 2-.4 2.6-.1.5-.3 1.4-.4 2-.3 2.4-2 .7-2.3-2.3-.2-2.4-.8-3.3-2.6-3.5-1.3-.2-2.5.3-2.8 1.2-.8 2.1-3.4 2.1-3.4 0 0-2.2-2.4-1.2-2.8 1.2-.7 3.5-2.2 3.9-2.2.6 0-4.1-1.2-4.1-3.3 0l-1.6 3.3v-3.3c-.1-2.8-.5-3.2-2.7-3.2-2.6 0-2.6-.3-.8-5.5.2-.6 0-1.6-.5-2.4-1.3-2-3.4-.2-5.2 4.2-.7 1.8-1.7 3.5-2.3 3.9-.6.4-.6 1.2.2 2.1 1.4 1.7.6 2.8-1.5 2-.8-.3-1.9 0-2.4.8-.5.9-.9 1-.9.2 0-.6 1.2-2.5 2.6-4.2 3.2-3.8 4.3-9.5 2-10.4-1.2-.5-2.3.3-3.6 2.6zm2 4.2c-1.6 4.2-2.4 2.2-.9-2.2.7-2.1 1.4-3.1 1.6-2.2.2.8-.1 2.8-.7 4.4zm7.5-.6c-.3 1.2-1.1 2.1-1.6 2.1-.6 0-.8-.3-.6-.8.2-.4.7-1.6 1.1-2.6.9-2.5 2-1.3 1.1 1.3zm3.2 6c-.5 3.2-2.8 5.3-4.3 4-.8-.6-1.4-2-1.4-3 0-1.6.7-1.9 5.2-2.8.5 0 .7.8.5 1.8zm-20.9 3.6c-1.4 1.5-2.9-1.6-1.5-3.3.9-1.2 1.2-1.1 1.8.5.4 1 .3 2.2-.3 2.8zm39.7-1.6c-.7 2.3-2.5 2.9-2.5.8 0-1.4 2.1-3.9 2.8-3.3.2.3.1 1.4-.3 2.5zm17.7-.7c-.7.7-1.2.8-1.2.2 0-1.4 1.2-2.6 1.9-1.9.2.3-.1 1.1-.7 1.7zm-49 5.8c.3 1.7.1 3.3-.4 3.6-.4.3-.8-1.1-.8-3 0-4.4.6-4.7 1.2-.6zM149.4 174.1c-1 1.7 1.3 3.6 2.7 2.2 1.2-1.2.4-3.3-1.1-3.3-.5 0-1.2.5-1.6 1.1zM224.6 178.2c-1.3 1.8-3 5.4-3.6 7.9-.8 3.3-1.9 5-3.6 5.7-2.7 1.3-2.3 4.2.6 4.2 1.3 0 1.6.6 1.2 2.7-.5 2.9-3.8 7.3-5.5 7.3-.9 0-.5-5.9.7-11.7.3-1.3.1-2.5-.4-2.8-1.9-1.2-3.8.9-5.3 5.9-2.1 6.6-4.7 9.4-4.7 5 0-1.6.4-4.6.9-6.7 1-4.2.1-5.3-2.8-3.7-1.3.7-2.2 2.5-2.7 5.8-.7 4.9-2.7 8.2-5.1 8.2-1.1 0-1.1-.5-.3-2 1.7-3.2 1.5-8.8-.4-10.9-1.8-2-5.1-2-6.9-.2-.7.7-1.4.5-2.2-.6-.9-1.2-1.6-1.3-3-.6-1.3.8-1.8 2.2-1.8 5.9 0 3.5-.5 5.4-1.8 6.7-2.5 2.3-4.2 1.2-3.4-2.1 2.4-9.4.8-12.7-4.5-9.6-1.6 1-3.3 2.7-3.7 3.9-.6 1.7-.8 1.4-1.3-1.5-.7-4.6-3.2-5-6.9-1.1-3.5 3.7-4.4 3.9-3.1.6.6-1.5.6-2.6 0-3-1.6-1-4.8 1.4-5.2 3.7-.4 3.2-3.2 3.4-4.6.3-.6-1.4-2.3-3-3.6-3.7-5-2.2-11.6 3.1-11.6 9.3 0 4.9-7.2 6.7-9.2 2.3-1-2.1-.9-3.1.2-5.1 1.7-2.9 3.5-3.2 3.5-.6 0 1 .8 1.9 1.7 2.1 2.6.5 3.5-4.4 1.3-6.8-5.7-6.3-15.3 4.6-11.9 13.5 1.5 3.9 7.4 5 13.6 2.4 2.2-.9 3-.8 4.3.5 1.1 1.1 2.6 1.4 4.8 1.1 3.7-.7 5.6-2.1 6.8-5.2 1.3-3.4 3.9-3 3.9.6 0 1.6.7 3.5 1.6 4.2 1.4 1.1 1.8 1 3-.6.8-1 1.4-2.5 1.4-3.2 0-1.7 3.2-8.3 4-8.3.4 0 .5 2.4.3 5.4-.3 3.9 0 5.6 1.2 6.6 2 1.7 4.1-.1 4.9-4.3.4-1.8 1.5-4.3 2.6-5.7l2-2.5-.6 5.1c-.5 4-.3 5.4 1.1 6.8 1 .9 2.4 1.5 3.1 1.2 1.6-.6 1.8.3.4 3.8-1.7 4.6-1.9 11.6-.3 13.1 1.9 2 4.6 1.9 6.6-.3 1.6-1.8 3.9-9.1 4.1-13.2.1-2.9 4.3-5.5 6.2-3.9.8.6 2.5.5 5.1-.4 3.2-1.1 4.1-1.1 5.1 0 1.7 1.8 2.4 1.7 5-.7 2.1-2 2.1-2 3.2-.1.5 1.1 1.8 1.8 2.7 1.6 1-.2 2.3-.4 2.9-.4.5-.1 2-1 3.2-2.2l2.3-2 1.7 2.1c2.3 2.7 5.7 3.2 10 1.5 2.2-1 3.9-1.2 4.6-.6 2.1 1.7 6.8 2 10.1.7 2.8-1.2 3.5-1.2 4.6 0 1.7 1.6 3.8.5 4.3-2.2.6-2.8 3.9-9.4 4.7-9.4.4 0 .9 1.2 1.1 2.7.4 3.7 4 4.3 6.2 1.2 1.4-2 1.4-2.5.1-3.9-.8-.9-1.5-2.6-1.5-3.8 0-1.1-.4-2.3-.9-2.6-1.7-1.1-5.8 1.2-8 4.6l-2.1 3.3.6-4.3c.4-2.4.3-4.2-.3-4.2-2.3 0-4.4 2.9-5.2 7.4-.5 2.7-1.5 5.2-2.2 5.7-2.3 1.5-5.8 2.2-7.6 1.4-1.5-.6-1.3-1 1.3-2 4-1.7 5.7-3.9 5.7-7.2 0-4.4-3.9-6-9.4-3.9-2.1.9-4.9 5.9-4.9 8.9 0 1.3-.7 3-1.5 3.7-1.7 1.4-6.5.5-6.6-1.3 0-.6-.2-2.7-.4-4.5-.3-3.1-.2-3.2 3.3-3.2 4.6 0 6.7-1.3 5.8-3.5-.4-1.1-1.3-1.5-2.6-1.2-2.5.6-2.5.2-.1-3.1 6.2-8.9.2-18.4-6.3-10zm4.9 3.6c-.6 3.2-2.4 7-3.5 7.7-1.3.8-.7-3.6 1.1-8.3 1-2.6 3-2.1 2.4.6zm13.5 15.7c0 1.3-2.9 3.5-4.4 3.5-1.2 0-.5-2.9 1-4.4 1.7-1.8 3.4-1.3 3.4.9zm-104 .4c0 1.1.5 2.3 1 2.6 1.6 1 1.2 4.2-.6 4.9-3.5 1.4-5.6-3.3-3.4-7.5 1.4-2.5 3-2.5 3 0zm51 1c0 1.8-1 4.2-2.5 5.8l-2.4 2.8-.1-4.6c0-4.5 1.3-6.9 3.7-6.9.8 0 1.3 1.2 1.3 2.9zm-10.6 15.8c-.3 2.7-.6 5.7-.9 6.8-.2 1.1-.4 2.3-.4 2.7-.2 2-2.1.5-2.1-1.5 0-2.5 2.8-12.7 3.5-12.7.2 0 .2 2.1-.1 4.7zM275.9 178.5c-4.8 2.5-6 9.2-2.2 12.1 2.2 1.7 3.8 1.7 6.6.2 3.1-1.6 4.6-3.9 4.6-6.8 0-5.2-4.3-7.9-9-5.5zM425.2 185.6c-1.2 4.6-3.2 5.2-3.2.9 0-3.5-2-4.1-4.2-1.4-1.1 1.3-1.7 1.8-1.3 1.1.4-.7 0-1.2-.9-1.2-1 0-1.6.9-1.6 2.2 0 1.7-.3 1.9-1.2 1-3-3-8.4.3-7.4 4.4.3 1.2.2 2.6-.4 2.9-.9.6-1.1 0-1.4-4.4-.1-.8-.7-1.6-1.4-1.9-.8-.2-1.2.9-1.2 3.7 0 3.4-.3 4.1-1.9 4.1-2.9 0-3.6-3.2-1.2-4.9 2.3-1.5 2.9-3.3.8-2.5-1 .3-1.2-.4-.9-3 .2-1.9-.1-3.7-.7-4.1-1.8-1.1-4.1 1.5-4.1 4.5 0 4.3-1 6-3.5 6-2.8 0-5.2 2.7-5.7 6.4-.4 3.8-2.1 4.3-3.6 1.2-1-2.1-.8-2.6.8-3.1 2-.6 2.8-2.5 1.2-2.5-.5 0-.9-1.4-.9-3.1 0-1.7-.6-3.5-1.4-4-2.1-1.3-4.1 1.9-3.7 5.8.2 1.8-.1 3.5-.7 3.7-.6.3-.5.8.4 1.4 1.6 1.1.7 6.7-.9 5.7-.6-.4-.8-1-.5-1.5 1.1-1.7-1.5-5.2-3.3-4.5-.9.4-2.4.8-3.2.9-1.1.2-1.4 1.4-1.1 4.6.2 2.8-.1 4-.8 3.6-.6-.4-1.1-1.8-1.1-3.1 0-1.2-.6-2.5-1.4-2.8-2.3-.9-5.6 2.2-5.6 5.3 0 3.1-1.5 4.8-2.3 2.6-.3-.7-.2-2.9.2-4.7.8-3.9.8-4.4-.2-8.2-.5-1.9-1.3-2.7-2.5-2.5-1.3.3-1.7 1.4-1.8 4.9 0 2.6-.8 5.7-1.7 7-1 1.3-1.7 3.4-1.7 4.6 0 1.3-.4 2.3-1 2.3-.5 0-1-1.1-1-2.5s-.7-2.8-1.5-3.2c-2.3-.8-5.5 2.6-5.5 5.9 0 3.1 2 4.5 4.8 3.2.9-.4 2.1-.6 2.6-.5.4.1 1.4-.3 2.2-1 .7-.6 1.7-.8 2.3-.5.5.4 1.5 0 2.3-.7.7-.8 1.9-1.2 2.6-.9.7.2 1.9-.1 2.7-.8.8-.6 1.9-.9 2.4-.6.5.4 1.2.2 1.6-.4.3-.5 1.5-1 2.5-1 1.4 0 1.8.7 1.8 3-.1 1.6.5 3.6 1.2 4.5 2 2.4 4.2-.1 3.9-4.5-.3-3.7.7-6.4 2-5.5.5.2 1.6-.4 2.5-1.4 1.1-1.2 2.5-1.6 4.1-1.3 1.4.2 3.2-.1 4-.8.8-.6 1.8-.9 2.3-.6.6.3 1.5-.1 2.2-.9.7-.8 1.7-1.2 2.2-.9.5.3 1.8-.2 2.8-1.1 1-.9 2.4-1.4 3-1 1 .6 2.5.3 8.5-2.1 2.1-.8 3.2-1.1 5.3-1.3.7 0 1.8-1.2 2.4-2.6 1-2.3 1.2-2.3 2.4-.7 1.2 1.5 1.5 1.5 2.3.2.5-.8.7-1.8.5-2.2-.3-.4 0-1.6.5-2.5.9-1.6 1-1.4 1.1.8 0 4.5 4.6 4.2 6.3-.4.3-.9 1.2-1.7 1.9-1.7.9 0 .9.3 0 1.2-1.7 1.7-1.5 2.8.7 2.8 1 0 2.1-.7 2.5-1.5.6-1.7-.2-4.5-1.4-4.5-.5 0-1.2-.9-1.5-2-1-3.1-2-2.4-3.3 2.6zm-29.5 2.1c-.3 1-.5.4-.5-1.2 0-1.7.2-2.4.5-1.8.2.7.2 2.1 0 3zm15.3 5.6c0 2-2.5-.1-2.8-2.4-.2-2.3-.2-2.3 1.3-.5.8 1.1 1.5 2.4 1.5 2.9zm-31.8-.1c-.9.9-1.2.7-1.2-1.2s.3-2.1 1.2-1.2c.9.9.9 1.5 0 2.4zm14.4 3c-.3 1.3-.6 2.7-.6 3.3 0 .5-.5.3-1-.5-1.5-2.3-1.2-5 .6-5 1.2 0 1.5.6 1 2.2zm-4.8 1.8c.2 3-1.2 4.2-2.1 1.7-.4-1 .9-4.7 1.6-4.7.2 0 .4 1.3.5 3zm-34.3 1.9c.2 1.8 0 2.9-.6 2.6-.5-.4-.9-2-.9-3.7 0-3.9.9-3.2 1.5 1.1zm17.5 3.7c0 1.4-.4 2.3-1 1.9-.5-.3-1-1.5-1-2.6 0-1 .5-1.9 1-1.9.6 0 1 1.2 1 2.6zm-9.2 2.9c.1 1.4-.2 2.5-.7 2.5-1.2 0-1.9-2.1-1.3-3.8.7-2 1.7-1.4 2 1.3zm-9.8 3.6c0 2.1-1.6 2.6-2.3.6-.6-1.7.3-3.8 1.4-3.1.5.3.9 1.4.9 2.5zm-9.4 2.1c-.3 1.3-.5 2.5-.5 2.8-.1.3-.5-.1-1-.9-1-1.6-.4-4.1 1-4.1.5 0 .7 1 .5 2.2zm26.4 1.5c0 1.5-.3 2.3-.7 2-.9-1-1-5.6-.1-5.1.4.3.8 1.7.8 3.1z"/><path d="M400.4 185.4c-.8 2.2.3 3.3 1.8 1.8.9-.9.9-1.5 0-2.4-.9-.9-1.3-.7-1.8.6zM53 195.2c-1.1 1.8-2 3.8-2 4.5 0 .6-.5 1.3-1.1 1.5-.9.3-.9.9-.1 2.4s.8 2.4 0 3.2c-2 2-2.6 1.3-2.1-2.3.5-3.9-.9-4.6-3.9-1.8-1.8 1.6-1.8 1.6-1.2-.1.5-1.4.3-1.7-.7-1.4-.8.3-1.6 1.8-1.9 3.4-.7 3.9-2.6 3.2-2.1-.7.2-2.3-.1-3-1.1-2.7-1.4.5-2.5 8.7-1.1 8.9 5.8.6 6.3.4 7.4-2.6 1.2-3 1.2-3 1.7-.5.5 3.1 2.1 4.1 4.4 2.9 1.1-.6 2.5-.6 3.6-.1.9.5 2.6.6 3.7.2 1.1-.4 2.8-.3 3.8.2s2.4.5 3.5-.1c1.3-.7 2.2-.7 3 .1.8.8 1.5 0 2.6-2.6.8-2 1.8-3.6 2.2-3.6.4 0 .4.3.1.7-.4.3 0 1.4.8 2.3 1.2 1.3 1.3 2.3.5 4.4-1.7 4.6-1.3 8.6.9 8.6 1.5 0 2.3-1.2 3.3-4.8 1.4-4.7 1.4-4.7 5.8-4.7 3.8-.1 4.5-.4 5.3-2.8 1-3 2.2-3.5 3.1-1.2.3.8 1.2 1.5 2.1 1.5.8 0 1.5.4 1.5.9 0 1.7 3.7 2.2 6.4 1 1.9-.9 3-.9 3.7-.2 1.2 1.2 4.9.6 4.9-.8 0-.5-.8-.9-1.9-.9-2.3 0-3.6-3.9-1.5-4.6.8-.2 2.2-.7 3.2-1.1 1.6-.6 1.6-.6 0-1s-1.6-.7-.4-3.2c1-1.8 1.1-3.2.5-4.4-1.4-2.5-4.6-.5-5.4 3.3-.7 3.4-2.9 5-5.8 4.2-1.3-.3-2.6.3-3.9 1.9-1.4 1.7-1.8 1.9-1.4.6.7-2.2-2.2-3.6-3.6-1.6-.7 1.1-1.1 1.1-1.5.1-.9-2.1-2.2-1.3-3.1 2-1.1 4.3-2.7 4.6-2.7.6 0-3-.3-3.3-3.3-3.5-2.6-.1-3.5.4-4.2 2l-.9 2.2v-2.3c-.1-2.6-1.7-2.8-4.3-.5-1.8 1.6-1.8 1.6-1.2-.1.5-1.4.3-1.7-.7-1.4-.8.3-1.6 1.8-1.9 3.4-.4 2.2-1.1 3-3 3.2l-2.5.3 2.2-1.5c2.6-1.9 2.4-5-.4-5.4-2.2-.3-4.3 1.7-4.7 4.5-.4 2.5-4.1 2.4-4.1-.2 0-1.3.8-2.1 2.3-2.3 2.4-.4 3-1.8 1-2.5-1-.3-1-.7.1-2 1.4-1.8.8-6.7-.9-6.7-.6 0-1.9 1.5-3 3.2zm3 .6c0 .5-.7 1.7-1.6 2.8-.8 1-1.4 1.4-1.1.9.2-.6.7-1.8 1-2.8.7-1.7 1.7-2.3 1.7-.9zm51.5 2.2c-.4 1.2-.9 1.9-1.2 1.7-.3-.3-.2-1.5.2-2.7.4-1.2.9-1.9 1.2-1.7.3.3.2 1.5-.2 2.7zm-46.3 7.2c-.7.7-1.2.8-1.2.2 0-1.4 1.2-2.6 1.9-1.9.2.3-.1 1.1-.7 1.7zm37 0c-.7.7-1.2.8-1.2.2 0-1.4 1.2-2.6 1.9-1.9.2.3-.1 1.1-.7 1.7zm4.8-.9c0 1.8-2.1 3.7-3.9 3.7-1.4-.1-1.3-.3.2-1.4.9-.7 1.7-1.8 1.7-2.5 0-.6.5-1.1 1-1.1.6 0 1 .6 1 1.3zM80.3 206c-.3 1.1-.9 2-1.4 2-.5 0-.9-.9-.9-2s.6-2 1.4-2c.9 0 1.2.7.9 2zm-5.1 8c-.2 1.6-.8 3-1.3 3s-.6-.7-.4-1.5c.3-.8.7-2.2 1-3 .8-2.5 1.2-1.7.7 1.5zM36.5 197c-.7 1.2.2 3 1.6 3 .5 0 .9-.9.9-2 0-2.1-1.5-2.7-2.5-1zM439.5 197c-.4.6-.3 1.6.3 2.2.6.6 1.2.6 1.7-.2.4-.6.3-1.6-.3-2.2-.6-.6-1.2-.6-1.7.2zM406 200.7c-5.6 2.1-7.2 10.2-1.8 9.5.3-.1.6 1.5.6 3.4 0 4.4 1.5 6.2 3.7 4.4.9-.7 1.5-2.8 1.5-5.1 0-3.8 1.2-5 2.6-2.7.5.8 1.1.6 1.9-.6 1.1-1.5 1.3-1.5 1.9-.1.4 1.2 1.1 1.3 2.3.7 1-.5 2.7-.6 3.8-.2 1.1.4 3 .4 4.3-.1 1.4-.6 2.2-.5 2.2.2 0 2.1 2.8-1 3.5-3.9.7-2.5.8-2.5 1.5-.7.4 1.1 1.1 2 1.7 2 .5 0 1.7.8 2.7 1.7 1.2 1.3 2.3 1.5 3.4.9.9-.5 2.6-.5 3.7-.1 2.6.9 4.6.2 6.6-2.3 1.1-1.3 1.8-1.6 2.3-.8.4.6.2 1.1-.3 1.1-.6 0-1.1.7-1.1 1.5 0 1.8 2.4 2 3.8.2.8-.9.8-2-.2-3.8-.7-1.3-1.1-3-.8-3.7.8-2.6-1.7-1-3.7 2.3-1.3 2.2-2.8 3.5-4.1 3.5-2 0-2 0 0-2 2.2-2.2 1.7-5-1-5-2 0-4 2.1-4.4 4.6-.2 1-.8 2-1.4 2.2-.9.3-1-.7-.6-3.2.6-3.9-1.4-5.2-2.3-1.6-.3 1.1-.9 2-1.3 2-.5 0-.6-.9-.3-2 .7-2.8-2.1-2.6-4.2.2-1.4 2-1.6 2-1.3.4.2-1-.3-2.1-.9-2.3-.8-.3-1.3.5-1.3 2 0 3-3 5.9-4.9 4.8-1.1-.7-.9-1 .8-1.6 2.4-.7 2.8-4.3.6-5.2-2-.7-5.5 2.4-5.5 4.9 0 1-.5 1.8-1 1.8-.7 0-.8-1.3-.4-3.5.8-4.3-1-4.7-2.5-.5-.5 1.6-1.4 3-1.9 3s-.7-1.4-.4-3c.6-4-1.4-3.9-2.2.1-.3 1.7-1 2.8-1.6 2.4-.5-.3-1 .2-1.1 1.2-.1 1-.2 3-.3 4.5 0 1.4-.4 3-.8 3.4-1.2 1.2-.9-3.7.5-9.4 1.6-6.1 1.4-6.8-2.3-5.5zm-.9 6.6c-1.7 1.7-2.4.1-1-2.5 1.2-2.1 1.4-2.1 1.7-.4.2 1-.1 2.3-.7 2.9zm19.1-2.1c-.7.7-1.2.8-1.2.2 0-.6.3-1.4.7-1.7.3-.4.9-.5 1.2-.2.2.3-.1 1.1-.7 1.7zm22.7-.1c-1.6 1-2.3.4-1.4-1 .3-.6 1.1-.8 1.7-.5.6.4.5.9-.3 1.5z"/><path d="M388.2 211c-1.5 2.1-3.3 3.9-4 4-.7 0-2.4 1.2-3.9 2.6-3 3-3.8 2.7-2.2-1 .7-1.4.9-2.9.6-3.2-1.1-1.2-3.5 1.6-4.2 4.8-.8 3.2.7 5.1 3.2 4.1.7-.3 1.3 0 1.3.6s1.3 1.1 2.9 1.1c1.7 0 3.3.5 3.6 1 .4.6 1.2 1 1.8.9.7-.1 2.5.3 4 .9 1.6.7 3.3 1 3.8.6.5-.3.9 0 .9.5 0 2 2.4 1.1 4.8-1.7 2-2.3 2.2-2.4 1.2-.4-1.7 3.6-.5 5.6 2.9 4.9 2-.4 3.1-.2 3.5.8.3.8 1.6 1.5 3 1.5s2.8.5 3.1 1c.4.6 1.4.8 2.4.5 1.4-.4 1.6.1 1.3 3.6-.4 3.8-.3 4 1.9 3.7 2.4-.3 4.2-2.9 5.5-8.2.5-2.1.4-2.8-.6-2.4-.7.2-1.5 1.4-1.7 2.7-.2 1.3-.8 3.1-1.3 4-1.6 2.7-1.3-1.3.5-5.5 1.3-3.1 1.7-3.4 3.4-2.4 1.7.9 1.9 1.4.9 3.5-1.3 2.8.4 5.8 2.8 4.8.8-.3 2 0 2.7.6.8.6 2.2 1.2 3.3 1.4 1 .2 2.7.7 3.7 1 .9.4 2.5 1 3.5 1.4.9.3 2.5.5 3.5.4 1-.2 2.7.5 3.7 1.4 1.1 1 2.6 1.5 3.3 1.2.8-.3 1.8-.2 2.3.2.5.4 2.8 1.4 5.2 2.1 3.2 1 4.5 1.1 5.4.2 1.6-1.6 2.9-1.5 2.2.2-1 2.7 1.5 2.6 4.1-.1 2.2-2.3 2.5-2.4 1.6-.6-1.4 2.8-1.4 4.3.2 4.3.6 0 2-1.8 2.9-4.1 1.5-3.4 1.5-4.1.2-4.6-.8-.3-2.2.1-3.1.8-1.5 1.2-1.6 1.2-1-.4.7-1.8-1.7-2.5-2.8-.7-.8 1.3-2.6 1.3-2.3-.1.2-.6-.7-1.8-1.9-2.6-2.2-1.4-2.5-1.3-5.5 1.8-3.1 3.4-3.4 2.8-1.3-2.4.5-1.1.3-1.7-.7-1.7-2.8 0-3.7-2.1-1.7-4.1 2.3-2.3 2.4-4.5.3-5.3-1.1-.4-2.7.6-4.8 2.9-3.2 3.5-5.9 4.4-7.1 2.5-1.1-1.7-3.5-1.1-6.1 1.5-3.1 3.1-5.7 3.3-5.2.3.2-1.2.9-2.3 1.7-2.6.8-.3 1.1 0 .7.6-.3.6-.2 1.3.3 1.6 1.1.7 2.3-2.2 1.5-3.5-1.1-1.9-5.1-.9-6.4 1.6-1.5 2.8-3.6 3.4-2.5.7 1.7-4.2 1.7-5-.6-5.7l-2.2-.7 2.1-1.7c1.1-.9 2.4-2.8 2.7-4.4.6-2.3.4-2.7-1.3-2.7-2.1 0-7.2 4.3-7.2 6 0 .6-.7 1-1.6 1-1 0-1.4.6-1.1 1.4.7 1.7-1.8 5.4-2.9 4.3-.4-.4-.1-1.8.6-3.2 2.1-3.9.2-4.2-2.9-.4-2.2 2.6-3.2 3.1-4.1 2.3-.7-.7-.9-2.1-.6-3.2.5-1.4 1.3-1.8 3.1-1.4 1.5.2 2.5 0 2.5-.7 0-.6-.5-1.1-1.2-1.1-.6 0-.1-1.1 1.2-2.4 2.4-2.6 2.2-5.6-.4-5.6-.8 0-2.6 1.4-4 3.1-2 2.3-3.2 3-4.8 2.6-1.2-.3-3-.1-4.1.5-1.7.9-1.9.8-1.4-.6.4-1 .1-1.6-.9-1.6-.8 0-1.9 1.1-2.3 2.4-1.1 2.6-3.2 3.8-5 2.6-.9-.5-.4-1 1.4-1.4 2-.5 2.6-1.2 2.3-2.9-.6-4-6.6-2.9-8 1.4-.2.7-1 1-1.7.8-.9-.3-.1-1.9 2.3-4.8 3.7-4.4 5.3-8.2 4.1-10-1.1-1.9-2.5-1.2-5.3 2.9zm3.8-.1c0 .5-.9 1.9-2 3.2l-2.1 2.4 1.6-3.3c1.5-3.1 2.5-4.1 2.5-2.3zm-7.7 9.1c-.3 1.1-1.2 2-2 2-1.1 0-1.1-.4-.3-2 .6-1.1 1.5-2 1.9-2 .5 0 .7.9.4 2zm30.3.6c-.4.9-.9 1.5-1.1 1.2-.3-.3-.3-1.3.1-2.2.4-.9.9-1.5 1.1-1.2.3.3.3 1.3-.1 2.2zm-20.6.4c0 .5-.5 1-1.1 1-.5 0-.7-.5-.4-1 .3-.6.8-1 1.1-1 .2 0 .4.4.4 1zm34 3.6c-1.8 2.1-2.4 1-.8-1.5.7-1.2 1.4-1.7 1.6-1.1.2.6-.2 1.7-.8 2.6zm-20 .9c0 .8-.9 1.9-2 2.5-2.3 1.2-2.4 1-.9-2.4 1.2-2.6 2.9-2.6 2.9-.1zm49 5.9c0 .2-.7.9-1.5 1.6-1.3 1.1-1.4 1-.9-.4.5-1.4 2.4-2.3 2.4-1.2zm-14 6.5c-.6 1.2-1.5 2.1-2.1 2.1-1 0-.5-1.3 1.4-3.8 1.5-1.9 2-.7.7 1.7zm6-.5c0 1.4-2.7 4.2-3.4 3.5-.2-.2 0-1.4.5-2.7.9-2.4 2.9-3 2.9-.8zm6.4 1.2c1.2.5 1.3 1 .5 2.5-1.7 3.3-5.6 2-4.3-1.5.7-1.7 1.4-1.9 3.8-1zm9.1 8.2c-1.2 1.3-2.4-2.2-1.2-3.7 1-1.2 1.3-1.1 1.5.8.2 1.3.1 2.6-.3 2.9z"/><path d="M378 210.5c0 1 .7 1.5 1.8 1.3 2.1-.4 1.9-2.2-.2-2.6-1-.2-1.6.3-1.6 1.3zM114.3 214c-1.2.5-2.9 2.3-3.8 3.9-.8 1.7-2.3 3.1-3.2 3.1-1.4 0-1.3-.4.6-2.1 2.7-2.6 2.3-4.3-1.2-4.7-2.2-.3-3 .2-4 2.7-1 2.4-1.6 2.8-2.5 1.9-.7-.7-1.2-2-1.2-3 0-2.9-1.6-2.1-3.9 1.8-2.5 4.2-2 5.6.9 2.9 1.1-1 2-1.3 2-.7 0 .7-.4 1.2-1 1.2-.5 0-1 .7-1 1.5 0 1.7 1.8 1.9 5.3.6 1.3-.5 3-.6 3.7-.1.7.5 2.4.4 3.6 0 1.4-.6 2.6-.5 2.9.1.4.5 1.1.7 1.6.4.5-.4.9.9.9 2.8 0 3.8 2.4 6.7 4.1 5 .9-.9 1.6-4.2 1.8-8.3.1-1.1.4-1.1 1.3-.2.8.8 1.5.9 2.5.1.9-.8 1.7-.8 2.6-.1.7.6 1.8.7 2.7.2.7-.4 2.3-.5 3.5 0 1.2.5 2.7.5 3.4 0 .7-.4 2.2-.5 3.2-.3 1.3.4 2-.2 2.5-2.1.8-3.3 2.3-3.4 1.6-.1-.4 2.4-.2 2.5 3.7 2.3 2.3-.1 4.4.2 4.7.5.4.3 1.5.2 2.6-.4 1-.5 2.4-.6 3.1-.2 1.7 1.1 2.9 1.1 4.9.1 1.1-.5 2.5-.4 3.8.4 1.6 1.1 2.3 1 3.7-.5 1.5-1.4 1.5-2.1.5-3.7-.6-1.1-1.2-2.7-1.2-3.5 0-2.1-1.7-1.9-3 .4-1.5 2.9-4 5.1-5.6 5.1-1 0-.8-.6.7-2.1 2.5-2.5 2-4.3-1.2-4.7-2-.2-2.8.4-4.2 3.3-1.7 3.6-4.1 4.6-5 2-.8-1.8.6-2.7 2.8-1.9 1.3.5 1.6.2 1.3-1.2-.7-3.8-6.8-2.4-6.8 1.7 0 1-.5 2.1-1.1 2.5-.7.4-.9-.5-.6-3 .4-3 .2-3.6-1.4-3.6-1 0-2.3.8-2.8 1.7-1 1.7-1 1.7-1.1 0 0-2.7-1.9-2-2.6 1-.8 3-2 4.3-4.4 4.3-.9 0-.7-.5.8-1.6 3.1-2.1 2.9-5.4-.2-5.4-2.5 0-6 3.6-5 5.1.2.4-.1 1.1-.7 1.5-.9.5-1-.3-.6-2.9.4-2.8.2-3.7-.9-3.7-.8 0-1.4.6-1.4 1.3 0 .7-.7 2.2-1.5 3.3-1.4 1.8-1.5 1.7-1-1.4.4-2.5.2-3.3-.7-3-.7.3-1.4 1.4-1.6 2.5-.2 1.2-1 2.4-1.8 2.7-1.2.5-1.4-.1-.8-2.9.7-3.8-.1-4.2-4.3-2.5zm-8.1 4.2c-.7.7-1.2.8-1.2.2 0-1.4 1.2-2.6 1.9-1.9.2.3-.1 1.1-.7 1.7zm9.1.6c-.6 2.4-2.3 3-2.3.9 0-1.3 2.1-3.9 2.6-3.4.2.2.1 1.3-.3 2.5zm19.2-1.8c.3.5-.1 1-1 1s-1.3-.5-1-1c.3-.6.8-1 1-1 .2 0 .7.4 1 1zm24.7 1.2c-.7.7-1.2.8-1.2.2 0-1.4 1.2-2.6 1.9-1.9.2.3-.1 1.1-.7 1.7zm8.8 1.8c0 .5-.7 1-1.6 1-.8 0-1.2-.5-.9-1 .3-.6 1-1 1.6-1 .5 0 .9.4.9 1zm-50 5.2c0 2.6-.4 3.8-.8 3-.8-1.2-.4-7.2.4-7.2.2 0 .4 1.9.4 4.2zM349.1 220.6c-2.6 3.3-2.7 8.4-.2 11 4.4 4.8 4.4 9.5.1 10.9-2.6.8-7-2.8-7-5.7 0-2.1 1.1-2.3 2.8-.6.8.8 1.5.9 2.2.2 1.6-1.6.1-4.4-2.8-5.5-5.4-2.1-8.8 6.7-4.9 12.3.9 1.3 2.3 3.2 3.2 4.3.8 1.2 1.1 2.6.6 3.3-.6 1-2.1-.1-5.8-3.8-4.6-4.9-5.1-5.1-6.6-3.5-1.9 1.9-2.2 5.1-.7 8.9.6 1.7.6 2.6 0 2.6s-1-.3-1-.8c0-.4-.7-1.6-1.5-2.6-1.1-1.5-1.7-1.7-2.9-.7-1.9 1.6-1 4.3 2.5 7.7 4.1 3.9 3.9 10.2-.3 12.5-1.7.9-1.9.8-1.4-.9 1.9-5.9 1-9.7-2.6-11.1-2.3-.9-5.6.2-7 2.3-1.9 2.8-.8 8.6 2.3 12.1 3.1 3.5 3.4 7 .5 5.9-.8-.3-3.1-2.6-5.2-5-2.9-3.6-3.9-4.3-5-3.3-2.1 1.7-1.7 3.2 2.1 7.6 1.9 2.3 3.5 5 3.5 6 0 2.6-2.8 6.3-4.7 6.3-1.5 0-6.3-4.7-6.3-6.2 0-1.4 2.2-2 3.3-.9 1.7 1.7 2.7 1.3 2.7-1.2 0-2.7-3.4-5-6.1-4.2-2.2.7-3.9 4.2-3.9 8 0 1.4 1.4 4 3 5.8 3.4 3.9 3.9 6.1 1.3 5.3-1-.3-3.4-.8-5.3-1.1-1.9-.3-4.3-1.6-5.2-2.8-1.5-1.9-1.9-2-2.8-.7-1.4 2.1-1.2 3.6.7 7.3.9 1.8 2.2 5 2.8 7.2.7 2.3 1.9 4.1 2.9 4.3 1.8.4 1.8-1.4.1-7.9-.6-2.4-.4-2.6 1.9-2.2 2.2.5 2.4.8 1.4 2.9-.9 1.8-.8 2.8 0 3.6 1.6 1.6 6.2-.6 6.2-3 0-1 .5-2.3 1.1-2.9.9-.9 1.4-2.3 1.8-5.3.1-.3 1.5-1.1 3.1-1.8 3-1.4 6-5.7 6-8.7 0-.8.8-1.5 1.9-1.5 2.8 0 4.5-2.7 5-8.3.1-.4.5-.6 1-.5 2.1.7 7-4.3 7.7-7.8.4-2.3 1.1-3.3 1.9-3 .8.3 1.9-.1 2.5-.9.8-1 .4-2.6-1.9-6.7-4.1-7.2-3.9-9.2.4-4.6 1.9 2.2 4.3 3.8 5.6 3.8 2.6 0 4.8-2.6 4.9-5.7 0-1.4 1-2.7 2.7-3.5 3.2-1.6 6.3-5.7 6.6-8.6.1-1.4 1.1-2.5 2.8-3.1 5-1.7 7.9-9 4.9-12.6-1.7-2.1-3.1-.9-2.8 2.5.2 3-1.8 6.3-3.3 5.4-.5-.3-.7-1-.3-1.5 1.8-3 1.4-7-1-9.4-3.2-3.2-4.9-3.2-7.5.1zm5.4 3.5c.4.5.4 2.2 0 3.6l-.6 2.6-1.5-2.2c-1.6-2.2-1.3-5.1.5-5.1.5 0 1.3.5 1.6 1.1zm-32.2 43.7c-.4 1.8-.8 2-1.9 1.1-1.5-1.2-1.9-4.1-.7-5.3 1.3-1.2 3.3 1.9 2.6 4.2zM417.5 222c-.8 1.2 2 2.4 3.5 1.5.6-.3.8-1.1.5-1.6-.8-1.2-3.2-1.2-4 .1zM431.2 225.2c-1.6 1.6-1.5 2.8.2 2.8 1.9 0 2.7-1.3 1.7-2.8-.5-.9-1-.9-1.9 0z"/><path d="M124.8 228.2c-.6 1.3-1.3 2.9-1.4 3.7-.2.8-.8 1.7-1.4 2.1-.6.4-1 1.1-.9 1.6.4 2.4-.2 2.6-1.7.6-1.9-2.8-3.8-2.8-6.4 0l-2 2.2v-2.2c0-2.6-1.2-2.8-3.4-.6-1.5 1.4-1.6 1.4-1.6 0 0-2.8-2-1.7-2.6 1.4-.4 1.6-1.3 3.5-2.1 4.1-1.1 1-1.2.8-.4-1.3.7-1.8.6-3.1-.2-4.2-1.5-2-7.2-1.7-7.2.4.1.8-.7 3.7-1.7 6.3-2 5.2-2.3 10.2-.9 11.2.9.5 4-2 4.2-3.3.6-6.1 1.4-6.8 6.5-6.7 2.9.1 3.8-.3 4.7-2.2 1-2.3 2.7-3.1 2.7-1.3 0 .5.6 1 1.4 1 .7 0 1.9.7 2.6 1.5 1.8 2.1 4.7 1.9 6-.5 1.3-2.5 3.2-2.6 4.7-.1 1 1.6 2.4 1.8 10.1 1.7 7.3-.1 9.4-.5 11.1-2 2.1-1.9 2.1-1.9 2.1.2 0 1.3.6 2.2 1.5 2.2.8 0 1.5-.6 1.5-1.3 0-.7.6-2.1 1.3-3.1 1.2-1.6 1.3-1.5 1.2 1 0 3.9 2.2 4.1 3.1.2l.8-3.3.5 3 .6 3 7.8.1c6.2.1 8.3-.2 10.1-1.7 1.3-1.1 2.8-1.9 3.2-1.9.4 0 0 .6-1 1.3-1.5 1.1-1.6 1.5-.4 2.5 1.1.9 1.9.9 3.2-.1 1.7-1.2 1.7-1.7.3-5.6-1.3-3.9-1.5-4.2-2.8-2.6-5.6 6.8-7.9 7.8-7.9 3.3 0-1.7.3-1.8 1.5-.8s1.6.9 2.1-.5c.9-2.3-.9-3.8-3.5-3-1.4.4-2.4 1.8-2.8 3.6-.8 4.1-2.6 3.6-2-.6.4-2.5.1-3.5-.9-3.5-.8 0-1.5.6-1.6 1.2 0 .7-.2 1.7-.3 2.3-.2.5-.3 1.6-.4 2.2 0 .7-.6 1.3-1.2 1.3-.7 0-.9-1.1-.6-3 .7-3.3-.7-4.8-2.8-3-.9.7-1.5.8-2 0-.9-1.4-2.1-1.3-3.9.6-1.5 1.4-1.6 1.4-1.6 0 0-2.3-1.8-2-2.5.5l-.7 2.1-1.5-2.1c-.8-1.2-2.1-2.1-2.9-2.1-1.8 0-5.6 3.8-4.9 5 .3.5-.3 1.4-1.4 2-1.3.7-2.2.7-2.6 0-.3-.5.1-1 .9-1 1.8 0 3.2-3.8 1.8-5.2-1.7-1.7-5.3.2-6.4 3.2-1 3.1-3.7 4.8-3.9 2.5-.1-.8-.2-2-.3-2.7-.1-.6.7-1.2 1.7-1.4 2.5-.3 3.4-1.4 2-2.2-.8-.5-.9-1.3-.3-2.2 1.7-2.7 1.2-6-1-6-1 0-2.5 1-3.2 2.2zm2.5 2.8c-.3 1.1-.7 2-.9 2-.2 0-.4-.9-.4-2s.4-2 .9-2 .7.9.4 2zm-29.4 8.2c-1.7 3.4-1.9 3.4-1.9.5 0-1.8.5-2.7 1.5-2.7 1.3 0 1.4.4.4 2.2zm19.6 1.6c-1.1 1.1-3.4-.8-2.8-2.4.6-1.5.7-1.5 2 .1.7 1 1.1 2.1.8 2.3zm17-2.8c-.3.5-1.1 1-1.6 1-.6 0-.7-.5-.4-1 .3-.6 1.1-1 1.6-1 .6 0 .7.4.4 1zm7.9 3.1c-.5.8-1 .6-1.6-.5-.5-.9-.6-2.1-.2-2.7.5-.8 1-.6 1.6.5.5.9.6 2.1.2 2.7zm-49.7 8.1c-.3.7-.5.2-.5-1.2s.2-1.9.5-1.3c.2.7.2 1.9 0 2.5z"/><path d="M163.6 230.5c-.6 1.7.9 2.9 2.4 2 1.4-.9 1.2-2.2-.4-2.8-.8-.3-1.7.1-2 .8zM459.7 234.1c-1.9 1.1-1.4 2.9.8 2.9 1.4 0 2.8-2.7 1.7-3.4-.4-.2-1.5 0-2.5.5zM419.1 248.4c-.7.8-1.5 3-1.8 4.9-.3 2.2-1.3 3.9-2.8 4.7-1.3.7-2.6 2.3-2.9 3.6-1 3.8-2.6 2.8-2.1-1.2.6-4.5-1.3-4.1-2.9.6-1.3 4.2-4 4.6-4.4.8-.3-2.2 0-2.6 1.7-2.3 2.6.5 3.6-2.1 1-2.8-1.3-.3-1.9-1.4-1.9-3.2 0-1.4.4-2.4.9-2.1.5.3.7 1.6.4 2.9-.4 2.1-.4 2.2 1.1.3 1.9-2.3 1.9-2.6.6-4.6-1.4-2.2-4.3-.1-5.4 3.9-.5 1.7-1.3 3.1-1.8 3.1s-.6.9-.3 2c.4 1.1.2 2-.4 2-.6 0-1.1-.4-1.1-1 0-.5-.9-1.4-2-2-2.5-1.4-5.6.1-6.6 3.2-.7 2.3-2.1 3.8-3.8 3.8-.5 0 0-1.1 1.3-2.3 2.4-2.7 2-5.7-.9-5.7-2.6 0-4.4 2.6-4.9 7.2-.1.4-.7.5-1.5.2-1.2-.5-1-1.5 1-5.4 3.1-6.1 3.2-11 .3-11-2.3 0-4.7 4.8-5.3 10.8-.3 2-.5 4-.5 4.3-.1.4-1 .9-2.2 1.2-2.4.7-3.5-1.4-2-4 1-1.7 1-1.7 1.1-.1 0 1 .5 1.8 1 1.8 1.6 0 1.1-4-.6-4.7-1.8-.7-4.4 1.6-4.8 4.3-.5 3.2-2.1 1.8-1.8-1.5.4-4-1.3-4-2.7-.1-1.3 3.9-2.5 3.9-1.9 0 .6-3.9-1.2-3.4-2.6.7-1.6 4.7-2.9 5.3-2.3 1 .6-4.5-.7-5.6-3.5-3-1.2 1-1.8 1.3-1.5.6.8-1.3-.9-2.8-1.7-1.5-.9 1.5-1.5 6.3-.9 7.8.7 1.8 2.3 1.9 2.3.1 0-.7.7-2.2 1.5-3.3 1.3-1.8 1.4-1.7 1.2 1.1-.2 2.8 0 3 4.1 3.1 2.3.1 4.2-.2 4.2-.7 0-.5 1-.4 2.1.3 1.7 1 2.3 1 2.6.1.3-1 1-1 2.4-.2 1.1.5 3 .7 4.2.3 1.2-.5 2.7-.6 3.2-.4.6.2 4.9.4 9.8.5 7.3.1 9-.1 10.4-1.7 2-2.2 4.3-2.4 4.3-.3 0 1.7.2 1.8 9.3 2 6.8.1 7.6-.2 5.6-2.2-1.3-1.3-.5-4.3 1-4.3.5 0 .8 1.1.5 2.4-.2 1.4.2 2.8.8 3.3 1.9 1.2 10.1 1.2 11.6.1 2-1.7 1.4-3-.9-1.8-1.1.7-2.3.9-2.6.7-.2-.3.5-1 1.6-1.7 2.2-1.1 2.8-4.4 1-5.6-1.9-1.2-5.7 1.7-6.3 4.9-.4 2.2-.9 2.8-1.7 2-.7-.7-.5-2.4 1-5.6 2.4-5.3 2.7-9 .7-10.6-1-.8-1.6-.8-2.5.3zm-39.6 5.3c-1.1 5.8-2.6 7.7-1.9 2.3.6-4.5 1.1-6 2.1-6 .3 0 .2 1.7-.2 3.7zm41.1.9c-.4 2-1 3.4-1.3 3-.3-.3-.2-2.1.1-4.2.4-2 1-3.4 1.3-3 .3.3.2 2.1-.1 4.2zm-36 7.1c-1 1-1.9-.5-1-1.8.6-1.1.8-1.1 1.2 0 .2.7.1 1.5-.2 1.8zm41.9-.6c-1 1.5-2.5 1-1.9-.6.4-.8 1-1.2 1.5-.9.5.3.7 1 .4 1.5zm-33.1.5c.7 1.9-.2 3.7-1.5 2.9-1.2-.8-1.2-4.5 0-4.5.5 0 1.2.7 1.5 1.6zM154.6 250.2c-2 3.1-2.9 10.8-1.7 14.1 1.2 3.2 4.4 3.6 6.3.8 1.4-2 1.4-2 2.6 0 1.3 2.1 4.2 2.6 4.2.8 0-.8.5-.8 1.5.1 1.6 1.3 3.5.4 6.2-3 .7-.8 1.3-1 1.3-.5 0 .6-.5 1.6-1.1 2.2-1.9 1.9-.1 3.2 3.2 2.3 1.6-.5 3.6-.7 4.4-.4.8.3 2.2.1 3.1-.4 1.3-.7 2.2-.6 3.2.5 1.3 1.2 1.7 1.2 2.9 0s1.2-2 .1-5.5c-.7-2.3-1.5-4.2-1.8-4.2-.3 0-1.5 1.9-2.8 4.1-2.7 4.6-3.8 4.4-3.3-.7.3-4.1-1.6-4.6-2.5-.7-1 4.3-1.5 4.6-3.1 2.4-.8-1.2-1.2-2.5-.8-3 .3-.5.1-1.2-.4-1.6-.6-.3-2.1 1-3.3 2.9-2.7 4.2-4.2 4.6-3.5 1.1.3-1.8-.1-2.9-1.4-3.5-2.4-1.3-2.5-1.3-5 1.2-1.5 1.6-2.3 1.9-2.6 1-.3-.7-1.2-1.9-2-2.8-1.3-1.3-1.8-1.3-2.5-.2-.6.8-.7 0-.3-2.2.4-1.9 1.2-4 1.7-4.5.7-.7.8.2.3 2.5-.7 3.1-.6 3.3.9 2.1 2-1.7 1.6-6.5-.7-6.9-.9-.2-2.3.7-3.1 2zm2.8 11.4c.7 1.9-.2 3.7-1.5 2.9-1.2-.8-1.2-4.5 0-4.5.5 0 1.2.7 1.5 1.6zm8.9.4c-.3 1.1-.9 2-1.4 2-1 0-1.2-2.4-.2-3.3 1.3-1.3 2.1-.7 1.6 1.3zM131.7 253.6c-.9 1 .2 2.4 1.9 2.4.8 0 1.4-.7 1.4-1.5 0-1.5-2.1-2.1-3.3-.9z"/><path d="M181 254.5c0 1 .7 1.5 1.8 1.3 2.1-.4 1.9-2.2-.2-2.6-1-.2-1.6.3-1.6 1.3zM407.7 253.6c-.9 1 .2 2.4 1.9 2.4.8 0 1.4-.7 1.4-1.5 0-1.5-2.1-2.1-3.3-.9zM99 258.1c0 .6-.9 2.4-2.1 4.1-2.6 3.6-1.5 5.3 1.1 1.8 1.1-1.4 2-2 2-1.5 0 .6-.6 1.7-1.2 2.3-1 1-1 1.5.1 2.1.8.5 2 .7 2.8.4 1.6-.6 1.5-.6.4 3.4-.6 2.2-.6 3.7.3 4.8 1.2 1.6 1.3 1.6 2.9 0 1.4-1.4 2-4.1 1.6-7.1-.2-1.4 2.3-2 7.8-1.8 3.2.1 6.5-.2 7.4-.7.9-.4 2-.5 2.3-.1.4.4 4.6.8 9.3.8 8 .1 8.8 0 11-2.4 1.3-1.4 2.3-2.1 2.3-1.5 0 .5-.5 1.4-1.1 2-1.6 1.6-.3 3.2 2.1 2.6 2.2-.6 2.8-4.7.9-5.9-.6-.3-.9-1.5-.6-2.5.8-3.1-1.2-2.2-3.4 1.6-1.2 1.9-2.5 3.5-2.9 3.5-.5 0-1.7.3-2.7.7-1.2.4-.8-.3 1.1-2.1 2.6-2.5 2.7-2.9 1.3-4.3-2.1-2.1-4.6-1-6 2.7-1.6 4.1-2.9 3.8-2.3-.5.4-2.1.2-3.5-.4-3.5-1.2 0-3 4.1-2.4 5.2.7 1.1-3.1 2.7-4.4 1.9-1.4-.8-.6-4.1 1-4.1.5 0 .6.4.3 1-.3.5-.2 1 .3 1 1.7 0 2.1-2.8.7-4-1.7-1.4-5.5.3-5.5 2.5 0 1.6-2.7 4.5-4.2 4.5-.7 0-.2-1 1-2.3 2.6-2.8 2.8-4.3.6-5.1-1.9-.7-5.4 1-5.4 2.7 0 .7-.6 2.2-1.4 3.2-1.2 1.7-1.4 1.5-1.2-2.1.1-3.8 0-3.9-3.4-3.8-3.2 0-3.5.3-3.8 3.2-.2 1.8-.6 3.2-1 3.2-1.3 0-3.2-3.9-2.6-5.5.4-1 0-1.5-1-1.5-.9 0-1.6.5-1.6 1.1zm11 3.8c0 1.1-.4 2.3-1 2.6-.6.4-1-.5-1-1.9s.5-2.6 1-2.6c.6 0 1 .9 1 1.9zm9.5-.9c-.3.5-1.1 1-1.6 1-.6 0-.7-.5-.4-1 .3-.6 1.1-1 1.6-1 .6 0 .7.4.4 1zm20.5-.6c0 .3-.4.8-1 1.1-.5.3-1 .1-1-.4 0-.6.5-1.1 1-1.1.6 0 1 .2 1 .4zm-35.4 12.3c-1.1 1.1-1.7-.4-.9-2.3.7-1.8.8-1.8 1.1-.1.2 1 .1 2.1-.2 2.4zM301.6 265.2c-2.6 3.7 1.1 7.7 4.2 4.6 1.7-1.7 1.5-5.5-.4-6.2-2.2-.8-2.1-.9-3.8 1.6zM336.6 271.9c-2.3 2.6-1.8 7.7.7 7.4 1.6-.1 1.5.3-.7 2.6-3.1 3.2-3.5 7.1-.7 7.1 2.3 0 3.5-1.5 5-6.2 1.2-3.7 3.4-5.4 5.4-4.1 1.9 1.2 4 1.3 5.3.2.8-.7 1.3-.6 1.6.2.6 1.8 2.8.1 2.8-2.1 0-1 .5-2.2 1.2-2.6.7-.5.9 0 .6 1.4-.8 2.9 1.4 4.7 4.1 3.3 1.3-.7 2.2-.8 2.6-.1 1.1 1.8 4.3 1.1 7.4-1.6 1.7-1.4 3.1-2.2 3.1-1.8 0 .4-.7 1.2-1.6 1.8-1.4 1.1-1.4 1.4-.1 2.4 1.2 1 1.8.9 3.2-.4.9-1 1.3-2.3.9-3.3-.3-.9-.9-2.6-1.1-3.9-.7-3.1-1.8-2.8-4.2 1.2-2.1 3.3-4.4 5-5.4 3.9-.3-.2.3-1.3 1.4-2.4 2.1-2.1 1.5-4.9-1.1-4.9-2 0-4 2.1-4.4 4.6-.2 1-.8 2-1.3 2.1-.7.3-.9-.9-.6-3.2.5-3.9-.8-4.6-3.9-1.8-1.8 1.6-1.8 1.6-1.2 0 .3-.9.2-1.7-.4-1.7-.6 0-1.5 1.5-2.2 3.4-.6 1.9-1.9 3.6-3 3.9-2.6.7-2.5-.1.1-2.1 2.5-2.1 1.6-5.2-1.6-5.2-1.6 0-2.6.9-3.5 3-1.7 4.1-3.2 4.9-2.6 1.4.8-4.4-2.8-5.9-5.8-2.5zm12.4 1.6c-.7.9-1.5 1.3-1.7 1.1-.7-.7.7-2.6 1.9-2.6.6 0 .6.6-.2 1.5zm17.2.7c-.7.7-1.2.8-1.2.2 0-1.4 1.2-2.6 1.9-1.9.2.3-.1 1.1-.7 1.7zm-26.2.2c0 1.5-1.8 3.1-2.6 2.3-.7-.7.7-3.7 1.7-3.7.5 0 .9.6.9 1.4zm-2 10.7c-.7 1.1-1.4 1.9-1.6 1.6-.7-.7.7-3.7 1.7-3.7.6 0 .5.9-.1 2.1zM147.2 272.6c-3.5 2.4-4.5 5.9-2.7 9.3 1.9 3.7 4.6 4.3 8.5 2 4.9-3 5.7-7.1 2.2-11.2-1.9-2.1-5.1-2.2-8-.1zM401.5 274.4c-.8 1.9-1.6 5.4-1.8 7.7-.2 2.4-.9 4.5-1.7 4.7-1 .4-1.1-.4-.6-3.2.5-2.3.3-3.6-.4-3.6-1.1 0-2 1.6-2.4 4.6-.5 3-2.2 2.6-3.2-.6-.5-1.8-1.3-3.2-1.8-3.2s-1.9 1.9-3.3 4.1c-2.4 4.1-1.6 5.8 1 2.1.8-1.1 1.7-1.7 2-1.3.4.3 0 1.1-.8 1.7-2.6 2-.3 3.7 3.4 2.6 1.9-.5 3.8-.7 4.2-.4.5.3 1.8 0 2.9-.6 1.1-.6 2-.7 2-.2 0 .5 5.3.8 11.7.8 11.3-.1 11.8-.2 12.9-2.4 1.5-3 .7-6-1.7-6.7-2.5-.8-3.8.1-5.4 3.8-1.3 3.2-4 4.4-4.8 2.3-.3-.7-.1-1.9.4-2.7.8-1.2 1-1.2 1.8 0 1.1 1.7 2.3-.1 1.5-2.2-.5-1.5-3.2-1.6-5.4-.2-.6.3-1 1.7-1 3s-.4 2.7-1 3c-.6.4-1-1-1-3.4 0-5-1.7-5.4-2.6-.6-.4 2.5-1.1 3.5-2.5 3.5-1.8 0-1.8-.2.3-4.3 1.5-2.9 2.9-4.3 4.2-4.3 1 .1 2.1-.5 2.4-1.3.3-1-.1-1.2-1.6-.9-1.7.5-2.1.1-2.4-2-.5-4.2-3.5-4-5.3.2zm3.1 3c-.4 1.9-1.1 3.8-1.7 4.1-1 .7-.7-2.4.6-6.6 1-3.2 1.8-1.4 1.1 2.5zm19.4 6.5c0 2-1.3 4.1-2.1 3.5-1.5-.9-1-4.4.6-4.4.8 0 1.5.4 1.5.9zM67.8 275.6c-4.2 2.2-3.5 5 .8 3.4 1.3-.5 2.6-.6 2.9 0 .3.5-.4 1.1-1.5 1.5-1.1.3-2 1.3-2 2 0 1 1 1.2 3.8.9 3.3-.4 3.5-.3 1.5.7-2.5 1.3-2.9 2.9-1.2 4.6.6.6 1.7 2.2 2.3 3.4.6 1.3 2 2.8 3.1 3.4 1.1.5 1.9 1.7 1.7 2.6-.2.9.4 2.4 1.3 3.2.8.9 1.5 2 1.5 2.5 0 1.5 2.2 2 4.8 1.1 2.8-1.1 2.8-.2 0 2l-2.2 1.8 2.2 1.9c1.2 1 2.2 2.7 2.2 3.6 0 1.3 1 2 3 2.4 3.4.7 3.4.8 2 3.4-.8 1.5-.6 2.1 1 3 1.1.6 2 2 2 3 0 1.1.7 2 1.5 2 .9 0 1.5.6 1.4 1.2-.4 2.9.2 3.8 2.6 3.8 1.8 0 2.8-.7 3.5-2.5.5-1.4 1.4-2.5 2-2.5.5 0 1-.5 1-1.1 0-.6-1.5-1-3.2-.9-5.2.3-6.8.1-6.8-1 0-.5 1.7-1.2 3.8-1.5 8-1.4 12.7-4.4 10.3-6.8-.9-.9-2.2-.8-5.6.4-2.4.9-4.8 1.3-5.2.9-.4-.5-1.7-1-2.8-1.2-1.6-.3-1.9-1-1.7-3.6.3-2.6-.1-3.4-2-4.1-1.4-.5-3-.5-4.1.1-1 .5-2.3.7-3 .5-.7-.2.3-1.1 2.1-2.1 3.1-1.6 4.3-3.6 2.1-3.6-.5 0-.8-.4-.5-.9.3-.5 1.7-.9 3.1-.9 4.3 0 7.5-4.2 4.1-5.5-1.4-.6-7.6.6-9.5 1.7-.6.4-1.1.1-1.1-.8 0-1 .9-1.6 2.4-1.6 2.9 0 4.8-2.1 3.7-3.9-.7-1-2.1-1.2-5.4-.7-4.2.6-4.7.5-6.3-2-1.5-2.3-2.3-2.5-5.6-2.1-2.1.3-3.8.1-3.8-.4s.6-.9 1.3-.9c.7 0 2.2-.6 3.3-1.4 1.8-1.4 1.8-1.5-1.5-2.9-1.9-.8-2.8-1.6-2.1-1.9 2-.6.2-2.8-2.3-2.9-1.7-.1-1.8-.2-.4-.6.9-.2 1.7-.9 1.7-1.4 0-1.3-3.1-1-6.2.7zM81 290c0 .5-.4 1-.9 1-.6 0-1.3-.5-1.6-1-.3-.6.1-1 .9-1 .9 0 1.6.4 1.6 1zm.8 2.1c1.4-.7 1.9-.6 1.9.4 0 2.6-3.8 2.9-6.1.5l-2.1-2.2 2.3 1.1c1.5.8 2.8.9 4 .2zM92 294c-1.9 1.3-3 1.3-3 0 0-.6 1-1 2.3-1 1.8 0 1.9.2.7 1zm-5 3.5c1.1 1.3 1 1.8-.6 2.9-3.2 2.4-6-.4-3.2-3.2 1.6-1.6 2.3-1.5 3.8.3zm11.5 1.4c-.6.5-2.3 1.2-4 1.5l-3 .6 3-1.4c3.5-1.8 5.4-2 4-.7zM95 311.7c0 .5-.5 1.5-1 2.3-.7 1.2-1.2 1.2-2.2.2-1-1-1-1.5.2-2.2 1.8-1.2 3-1.3 3-.3zm16.9 6.8c-.9.8-7.9 3.5-7.9 3 0-.7 5.3-3.4 6.9-3.5.8 0 1.2.2 1 .5zm-10.9 1.4c0 1.2-3.9 2.5-4.8 1.6-.7-.7 1.7-2.5 3.6-2.5.6 0 1.2.4 1.2.9zm3 9.1c0 .5-.4 1-.9 1-.6 0-1.3-.5-1.6-1-.3-.6.1-1 .9-1 .9 0 1.6.4 1.6 1z"/><path d="M395.7 276.6c-.9 1 .2 2.4 1.9 2.4.8 0 1.4-.7 1.4-1.5 0-1.5-2.1-2.1-3.3-.9zM266 280.2c-2 5.1-3.9 6.9-6 5.8-2-1.1-5 1.5-5 4.3 0 1.9-2 3.4-2.1 1.5-.1-.7 0-2.6.1-4.2.2-3-.6-2.9-4.2.1-1.5 1.3-1.6 1.3-1.1-.9.6-2.1.5-2.2-1-.9-.9.7-1.7 2.1-1.7 3 0 2.1-1.9 4.1-3.9 4.1-1 0-.8-.7 1-2.6 2.3-2.5 2.3-2.6.6-3.9-2.5-1.8-4.3-1-5.6 2.6-1.3 3.7-3.1 3.8-2.5 0 .6-3.7-2.5-4.8-5.5-1.9-2.7 2.5-2.8 6.8-.1 7.5 2 .5 1.9.6-.5 3.1-2.8 2.8-3.1 4.4-1.1 6.1 1.8 1.5 4.5-1 5.3-5 .7-3.4 4.1-6.9 5.1-5.2.4.7 2.6 1.1 4.9 1 3.6-.1 4.4-.5 5.4-2.9 1.5-3.5 2.5-3.6 2.4-.1 0 2.6.2 2.7 5.5 2.9 3 .2 6-.2 6.7-.8.9-.7 1.7-.7 2.6-.1 1.4 1.2 15.6 1.2 17.5 0 .7-.5 1-1.3.6-1.8-.3-.6-1.1-.5-2.1.2-1.2 1-1.6 1-2.4-.2-1.1-1.7-.7-3.1 1.1-3.7.7-.3 1 0 .6.7-.4.6-.3 1.1.2 1.1 1.7 0 2.1-2.8.7-4-1.9-1.5-5.3.7-5.7 3.7-.5 3.6-2.3 3-2-.6.3-3-.7-3.8-4.2-3.2-.5.1-.5-.6-.1-1.6 1.4-3.2 1.1-6.7-.6-7.1-1.1-.2-2.1.9-2.9 3zm2.1 3.1c-1.3 1.3-1.5-.1-.4-3 .7-1.7.8-1.7 1.1.1.2 1-.1 2.3-.7 2.9zm-5.7 8.4c-3.4 2.5-4.6 1.4-1.7-1.6 2.2-2.2 2.9-2.5 3.2-1.3.2.9-.5 2.2-1.5 2.9zm9.6-4.3c0 2-2.2 5.6-3.4 5.6-1.5 0-3.1-3.4-2.2-4.8.5-.8 5.6-1.5 5.6-.8zm-39.7 2.3c-1 2.9-1.4 3.4-2.4 2.8-.5-.4-.5-1.4.1-2.6 1.3-2.4 3.2-2.5 2.3-.2zm9.2-.7c-.3.5-1.1 1-1.6 1-.6 0-.7-.5-.4-1 .3-.6 1.1-1 1.6-1 .6 0 .7.4.4 1zm18 0c-.3.5-1.1 1-1.6 1-.6 0-.7-.5-.4-1 .3-.6 1.1-1 1.6-1 .6 0 .7.4.4 1zm-29.1 11.4c-.6 1.6-2.4 2.3-2.4.8 0-1 2.2-3.3 2.7-2.8.2.2.1 1.1-.3 2z"/><path d="M272.5 282.1c-1 1.5.1 2.3 2 1.5.9-.3 1.3-1 1-1.6-.8-1.3-2.2-1.3-3 .1zM371.4 283.4c-1.6 1.3-1.7 1.8-.6 3.3.7 1 1.5 2.6 1.8 3.5.4 1 1 1.8 1.5 1.8s.9.7.9 1.5.9 2.4 1.9 3.4c1 1 2.2 2.8 2.6 4 .3 1.2 1.1 2.1 1.6 2.1s.9.7.9 1.5c0 .9.7 1.8 1.6 2.2.8.3 1.3 1.2 1 1.9-.7 1.8 1.4 1.7 3.8-.1 1.1-.8 3.4-1.5 5-1.5 3.3 0 9.6-3.3 9.6-5 0-1.8-3-2.3-7-1.1-2.4.7-4.7.8-6.2.2-1.2-.4-3.3-.5-4.5 0-1.3.5-2.5.4-2.8-.2-.4-.5.8-1.4 2.5-2 2.9-1.1 3.8-3.8.9-3.1-5.7 1.4-6.6 1.3-7.3-.4-.4-1-.1-2.1.6-2.6 2-1.2 3.1-.9 2.4.8-.4 1.1-.1 1.4 1.1 1.2 1-.2 1.9-1.1 2.1-2.1.4-2.2-3.6-3.8-6.1-2.5-1 .5-2.3.7-3 .5-.7-.2.2-1.1 2-2 2.4-1.3 3.1-2.2 2.6-3.5-1.3-3.4-5.5-4.3-8.9-1.8zm6.1 1.5c.6 1.1-3.3 2.6-4.3 1.6-.4-.3 0-1 .8-1.5 1.9-1.2 2.7-1.2 3.5-.1zm21.1 18.6c-1.1.8-2.9 1.5-4 1.5-1.7-.1-1.5-.4.9-1.5 4-1.8 5.5-1.8 3.1 0zm-10 1c-2.2 1.7-3.6 1.9-3.6.7 0-1.4 1.2-2.2 3.4-2.2 2.1.1 2.1.1.2 1.5zM323.8 287.2c-1.7 2.7-3.5 7.9-4.3 12.8-.3 1.9-.7 3.5-.8 3.5-1.7.2-6.4 3.6-7.9 5.5-3.1 4.3-2.8 11 .6 13.2 1.9 1.3 5.4.9 7-.8 1.5-1.4 1.7-1.4 3.2 0 1.8 1.8 4.7 2.1 7.4.6 1.3-.7 2.1-.7 2.5 0 .9 1.5 5.2 1.2 6.8-.5 1.3-1.3 1.6-1.3 2.7 0 1.7 2.1 5.2 1.9 7.8-.5l2.2-2.1 2.2 2.1c2.4 2.2 8.7 2.7 10.6.8.9-.9 1.5-.9 2.4 0 1.5 1.5 5.5 1.6 6.4.1.4-.8.9-.8 1.7 0 1.2 1.2 4.6 1.5 4.8.3.1-.4.2-2.5.4-4.7.1-2.3.5-5.8.9-7.8.6-3.4.5-3.8-1.9-4.7-1.5-.6-3.5-1-4.5-1-3 0-7.9 4.8-9.2 9.1-1.4 4.7-3.9 6.5-6.8 4.9-1.9-1-2.2-1.8-2.2-6 0-3.5.1-3.7 3-3.7 5.5-.1 6.2-.3 6.2-2.3 0-1.5-.7-2-2.6-2h-2.5l1.9-2.8c3.1-4.3 3.7-9.3 1.5-12.1-1.6-2-2.2-2.1-4.5-1.1-2.5 1.2-6 7.5-7.3 13.2-.4 1.9-1.2 2.8-2.5 2.8-1.5 0-2 .7-2 2.5s.5 2.5 1.6 2.3c2.8-.5 2.6 3.8-.2 7.1-1.4 1.7-3 2.8-3.5 2.5-.9-.5-.3-9.9.7-11.6.2-.3-1.2-1.2-3.1-1.8-6.6-2.2-8.8-.3-14.5 11.9-1.1 2.5-2.9 2.4-3.5-.2-.4-1.6.2-4.2 1.9-7.5 6.8-13.4 7.3-24.2 1.2-24.2-1.4 0-3 1-3.8 2.2zm4 9.1c-.4 2.1-1.5 5.2-2.3 7l-1.4 3.2.4-5c.4-5.2 1.4-10.3 2.3-11.9 1.1-1.9 1.9 3 1 6.7zm33.2-3c-.1 2-4 10-4.6 9.4-1-.9 2.6-11.8 3.6-11.2.6.4 1 1.2 1 1.8zm-43.6 24.4c-.9.7-2.1 1-2.5.7-1.7-1-.9-5.8 1.4-8.2l2.2-2.4.3 4.3c.3 3.2-.1 4.7-1.4 5.6zm22.2-6.1c-.7 4.1-2.3 7.4-3.5 7.4-1.6 0-2.1-3-1-5.7 2.3-6 5.3-7.2 4.5-1.7zm35.2.1c-1.6 6-2.7 7.6-4.3 6.3-2.4-2 1.2-10 4.6-10 .4 0 .3 1.7-.3 3.7z"/><path d="M389.2 293.7c-1 .4-1 .8-.1 1.9 1.5 1.8 2.9 1.8 2.9 0s-1.1-2.5-2.8-1.9zM386.5 320.4c-.8 1.9-1.7 5.4-1.9 7.7-.2 2.2-1 4.6-1.6 5.3-1 .9-1.1.3-.7-2.6.5-3 .2-3.7-1.5-4.1-2-.6-6.8 3.1-6.8 5.3 0 .5-.4 1-.9 1-.6 0-.7-1.6-.4-3.5.6-3.6-.4-4.4-2.5-2.3-1 1-1.5 1-2.2-.2-.9-1.3-1.1-1.3-2 0-.5.8-1 2.2-1 3.1 0 .9-.7 2.2-1.5 2.9-1.2 1-1.3.6-.8-2.3.4-2.6.1-3.6-1.2-4-2.4-1-5.4.9-6.1 3.8-1.1 4.4 0 5.3 6.1 5.1 5.3-.1 5.8-.3 7-3.1l1.3-3 .1 3.1.1 3.2 6.8-.2c3.7 0 7.3-.5 8-.9.7-.5 1.2-.4 1.2.3 0 .6 1.7.9 4.5.6l4.4-.3-2.4 2.9c-2.8 3.3-3.2 6.3-1.1 7.1 1.7.7 4.1-1.8 5.1-5.3 1-3.6 3.6-6.2 4.9-5.1 1.3 1.1 12.6.9 14.4-.2 2.1-1.4 1.4-2.9-.8-1.7-1.1.6-2 .7-2 .1 0-.5.7-1.1 1.5-1.5 2-.7 1.9-4.2-.1-5-1.9-.7-5.4 1.9-5.4 4 0 1.9-4 3.8-5.2 2.6-.6-.6.1-1.7 2.1-3.1 4.2-3 3.9-3.9-1.1-3.7-2.5 0-4.1.5-3.8 1.1.3.5 1.1.9 1.8.9 1.8-.2 1.5.3-1.8 2.6l-2.9 2.1.4-3.6c.6-4.5-1-4.5-2.6-.1-.7 1.9-1.6 3.3-2 3-.5-.3-.4-1.6.1-2.9.6-1.5.6-2.7 0-3-1-.6-3 2.6-3 4.8 0 1.5-2.4 3-3.3 2-.3-.2.6-2.6 1.9-5.1 2.8-5.3 2.9-10.5.1-11-1.2-.3-2.2.7-3.2 3.2zm2.4 5.4c-1.7 5-2.3 2.5-.8-3 .8-2.6 1.4-3.6 1.6-2.5.3.9-.1 3.4-.8 5.5zm-29.8 7.5c-.8.8-1.1.5-1.1-.9 0-2.7 1.4-4.1 1.8-1.9.2.9-.1 2.2-.7 2.8zm20.5-2.7c-.3.9-.6 2.1-.6 2.7 0 .8-.3.8-1 .1-1.2-1.2-.3-4.4 1.2-4.4.6 0 .7.7.4 1.6zm33.9-.6c-.3.5-1.1 1-1.6 1-.6 0-.7-.5-.4-1 .3-.6 1.1-1 1.6-1 .6 0 .7.4.4 1zM394 341.1c-.7 1.1-1.4 1.9-1.6 1.6-.7-.7.7-3.7 1.7-3.7.6 0 .5.9-.1 2.1zM306.1 328.1c-1.2 1.1-2.1 2.2-2.1 2.5 0 1.9 2.6 4.6 5.5 5.9 4 1.6 4.4 2.9 1.5 4.5-2 1.1-6.3-.2-5.7-1.8.1-.4-.2-.8-.8-1-1.3-.4-1.9 2.8-.8 3.9 2.5 2.5 9.5 1.6 11.4-1.4 1.3-1.9-.5-5-3.7-6.3-4.2-1.8-5.2-3.4-2.9-5 1.8-1.3 5.6-.3 5.4 1.4-.3 2.1.4 2.1 3.1.2 1.6-1.2 3.4-1.9 3.8-1.6.5.3.5 3 0 6.1-1.1 5.9-.4 10.3 1.2 7.5.4-.8 1.1-3.3 1.4-5.5.9-4.9 3.8-9 5.9-8.2 1.3.5 1.3 1.3.2 6.1-1.2 4.9-1.1 5.6.4 7 .9.8 2.6 1.3 3.7 1 1.2-.3 2.6.1 3.3 1 2.6 3.2 6.1.7 6.1-4.3 0-1.2.6-2.1 1.4-2.1 2.4 0 6.6-4.1 6.6-6.5 0-4.1-5-6.4-9.5-4.3-3.2 1.5-5.5 5-6.1 9.5-.4 3.7-2.3 6-3.4 4.2-.4-.5-.2-3.4.3-6.5.9-4.6.8-5.7-.6-7.1-1.5-1.5-1.8-1.5-4.1.1-1.4.9-2.6 2.1-2.6 2.7 0 .6-.4.8-1 .4-.5-.3-.7-1.2-.4-1.9.3-.8.1-1.7-.5-2-1.3-.8-6.1 1.4-6.1 2.8 0 .6-.7.3-1.4-.7-2-2.6-7-2.9-9.5-.6zm41.3 2.2c1.2 1.9-.1 4.8-2.4 5.5-.9.3-1.1-.2-.6-2.1.3-1.5.1-2.9-.5-3.2-1.3-.9-1.9-.3-2.4 2.5-.3 1.3-1 2.8-1.7 3.3-.9.5-.9 1-.2 1.3.6.2.8 1.8.6 3.4-.3 2.3-.8 2.8-1.6 2-1.1-.8-1.2-2.2-.7-8.6.2-2.1 4.9-6.3 6.7-6 1 .2 2.3 1 2.8 1.9zM216.2 335.1c-2.4.9-2.6 1.7-1.3 5.1 1.9 4.6 2.4 6.3 2.5 7.8.1.8 1.6 2.2 3.4 3.2 1.8.9 2.9 1.9 2.3 2.2-.5.4-1.2.2-1.6-.4-1-1.6-2.5-1.1-2.5.8 0 1.1.9 2.7 1.9 3.6 1.1 1 1.7 2.4 1.5 3.1-.3.7 0 2.4.7 3.7.7 1.3 1.2 2.7 1.1 3.2-.2.4.2 1.4.9 2.2.6.8.9 2.1.5 2.9-.4 1.2.4 2 3 3.1 2 .8 3.2 1.9 2.8 2.5-.4.8-.9.7-1.5-.2-.6-1.1-1.1-1.1-2-.2-.9.9-.7 1.8.8 4 1 1.5 1.9 3.5 1.8 4.3-.1.8.5 2.3 1.3 3.2 1.3 1.6 1.6 1.6 4.8 0 1.8-.9 3.4-2.4 3.4-3.3 0-2.4-2.6-4.2-5.5-3.7-1.4.3-2.5.2-2.5-.1.1-1.6 2.9-4.1 4.6-4.1 2.8 0 .2-2.1-3.7-2.9-3.9-.8-5.1-3.1-1.6-3.1 3.4 0 4.3-3.5 1.4-5.5-1.2-.8-3.1-1.5-4.3-1.5-2.6 0-5-2.5-3.4-3.5.5-.3 1-.2 1 .3 0 1.3 2.7 2.3 4.5 1.6 3.6-1.4-.2-6.9-4.2-6.1-3.5.6-3.6-.6-.2-2.8 2.8-1.9 3.7-3.4 2.2-3.6-.5 0-1.7-.2-2.8-.3-1.1-.1-2.9-.7-4-1.3-2.1-1.2-1.4-1.8 3-2.5 3-.5 1.4-2.3-2-2.3-1.6 0-3.1-.5-3.2-1-.2-.6 1.8-1 4.5-1.1 4 0 4.8.3 4.8 1.7-.1 1 .4 1.7.9 1.6.6-.1.9-1 .8-2-.2-1 0-1.6.5-1.3.4.2 1.6-.2 2.6-1 1.6-1.1 1.7-1.6.5-3-1-1.2-2.3-1.5-5.5-1-2.9.4-4.6.1-5.3-.8-1.6-1.9-4.2-2.5-6.9-1.5zm4.8 2.8c0 1.2-2.9 2.3-4.2 1.5-.6-.4-.5-1 .3-1.5 1.8-1.1 3.9-1.1 3.9 0zm10.5 2.1c-.3.5-2.1 1-3.8.9-3.1-.1-3.1-.1-.7-.9 3.6-1.1 5.2-1.1 4.5 0zm-1.5 20.4c0 1.1-1.9 1.5-2.5.6-.3-.5.1-1 .9-1 .9 0 1.6.2 1.6.4zm1.5 8.6c-.3.5-1.5 1-2.6 1-1 0-1.9-.5-1.9-1 0-.6 1.2-1 2.6-1 1.4 0 2.3.4 1.9 1zm6 16c.3.5-.1 1-.9 1-.9 0-1.6-.5-1.6-1 0-.6.4-1 .9-1 .6 0 1.3.4 1.6 1zm-1.9 3.7c-.7.7-2.6-.7-2.6-1.9 0-.6.6-.6 1.5.2.9.7 1.3 1.5 1.1 1.7z"/><path d="M373.4 341.8c-1 1.5-2.7 7.1-2.8 9.4-.1 1.2-1.6 2.2-1.6 1 0-.6-.9-1.6-1.9-2.1-1.4-.8-2.5-.6-4.5 1-1.4 1.1-2.6 1.6-2.6 1 0-.6-.9-1.5-2.1-2.1-1.5-.9-2.4-.8-3.6.2-1.3 1-1.7 1-2 0-.3-.6-1-.9-1.6-.5-.7.4-.8 0-.2-1.3 1.5-3.5 1.1-6.9-.7-6.9-1.9 0-7.1 9.2-5.7 10.1.5.3.9 1.6.9 2.8 0 3.3 1.7 4.3 7.8 4.3 4.2.1 5.5-.3 6.3-1.9 1.1-2 1.1-2 2.5.1 1.9 2.6 3.9 2.7 6.1.1 1-1.1 2-2 2.4-2 .4 0 .9.9 1.2 2 .3 1.2 1.4 2 2.6 2 1.2 0 3-.9 4.1-2 1.1-1.1 2.3-2 2.7-2 .4 0 .2.5-.5 1.2-1.6 1.6-1.5 3.8.2 3.8 2.9 0 3.8-2.6 2.3-7.1l-1.4-4.2-2.8 4.1c-3.7 5.6-6.2 4.7-2.9-1.1 2.9-5.1 3.3-11.7.6-11.7-.9 0-2.2.8-2.8 1.8zm1.6 6.8c-1.7 5.1-2.3 3.5-.8-2.2.7-2.7 1.4-4.1 1.6-3.1.2.9-.2 3.3-.8 5.3zm-25.5-2.6c-.4 1.2-.9 1.9-1.2 1.7-.3-.3-.2-1.5.2-2.7.4-1.2.9-1.9 1.2-1.7.3.3.2 1.5-.2 2.7zm2.5 7.6c0 2.3-2 3.7-3.6 2.6-.8-.6-1-2.2-.5-4.2 0-.3 1-.6 2.1-.6 1.4 0 2 .7 2 2.2zm4.6 1.9c-.8 2.1-2.5 1.1-2.1-1.3.2-.9.4-1.9.4-2.2.1-.2.6.1 1.2.7.7.7.9 1.9.5 2.8zm9 .2c-.6 1.4-.9 1.5-1.6.4-1.1-1.9-.1-4.6 1.3-3.2.5.5.7 1.8.3 2.8zM260.3 354.2c.2.7 1 1.3 1.7 1.3s1.5-.6 1.8-1.3c.2-.7-.5-1.2-1.8-1.2s-2 .5-1.7 1.2z"/><path d="M268 357.8c-2.2 1-3.6 2.6-3.8 3.9-.5 3.6-2.4 2.7-2-.9.4-4.4-1.8-4.7-2.6-.3-.4 1.9-1.2 3.5-1.7 3.5-.6 0-.8-1.2-.4-2.9.9-4-1.3-5.1-3.8-2-1.9 2.4-2 2.4-1.3.1.5-1.6.3-2.2-.8-2.2-.8 0-1.7 1.3-2.1 3-1 4.5-2.9 5.1-2.1.6.9-4.5-1.1-4.9-2.7-.6-.6 1.6-1.5 3-1.8 3-.4 0-.5-1.4-.3-3 .5-2.9-.8-4.1-2.1-2-2.1 3.5.4 11.3 2.5 8 .7-1 1.2-1.1 1.8-.4 1.3 1.9 6.6.9 7.8-1.5 1.4-2.8 2.9-4.1 2.1-1.9-1.3 3.7.1 4.7 6.8 4.3l6.4-.3-.1 3.3c-.3 8.4 5.2 7 5.8-1.5.3-3.6.3-3.7 1.3-2.1.7 1.2 1.3 1.2 2.4.3.7-.7 1.7-.9 2.1-.5 1 1.1 8.8 1.1 10.9.1 2.7-1.4 2-2.9-1-2.2l-2.8.7 2.3-1.9c1.6-1.3 2.1-2.5 1.7-3.7-1.3-3.1-5.9-1.3-6.9 2.8-1 3.9-2.5 3-1.6-1 .6-2.7.5-3.5-.6-3.5-.8 0-1.4.6-1.4 1.3 0 .7-.7 2.2-1.6 3.3-1.5 1.8-1.5 1.7-1-1.4.7-4-1.1-4.3-2.5-.3-1.5 4.3-4 5-2.8.8 1.6-5.5 1.3-5.7-4.1-2.9zm1 4.2c-.6 1.1-1.5 2-2.1 2-.6 0-.6-.7.1-2 .6-1.1 1.5-2 2.1-2 .6 0 .6.7-.1 2zm19-1c0 .5-.5 1-1.1 1-.5 0-.7-.5-.4-1 .3-.6.8-1 1.1-1 .2 0 .4.4.4 1zm-16 6.5c0 1.4-.4 2.5-.9 2.5-.4 0-.6-1.1-.3-2.5.2-1.4.6-2.5.8-2.5.2 0 .4 1.1.4 2.5z"/><path d="M259.1 371.4c-1.4.8-3.1 1.2-3.8.9-2.8-1.1-.1 2.3 3.2 4.1 4.6 2.5 4.4 3.4-.5 2.9-4.2-.5-5.1.5-2.5 3.1 1.9 1.9 1.9 2.7 0 2-1.1-.5-1.3-.2-.9 1 .3.9 1.3 1.6 2.2 1.6 1.2 0 1.1.5-.7 2.1-2.9 2.7-2.4 5 1.6 6.9 4.4 2 4.2 3.4-.3 2.5-2.9-.5-3.6-.4-3.1.8 1 2.7-.7 3.9-3.7 2.6-3-1.4-5.3-.1-4.3 2.4.7 1.9 8.4 5.6 10.6 5 .9-.2 2.4.3 3.2 1.3 1.3 1.6 1.1 1.7-2.3 1-3.7-.7-3.8-.6-3.8 2.3 0 2.4.7 3.4 3.3 4.7 4 2.1 4 2.1 3.3 3.3-.4.6-2.3 0-4.9-1.5-5.2-2.9-12-3.3-11.5-.7.4 2.3 6.6 5.3 11.2 5.5 2 .1 4.1.7 4.8 1.5.9 1.1.4 1.3-3.3.7-3.9-.7-4.3-.6-3.1.8.7.9 2.4 1.9 3.8 2.2 1.4.4 2.2 1.1 1.9 1.6-.3.6-1.5.6-3 0s-2.7-.6-3 0c-.6.9.3 1.4 6 3.6 1.6.6 1.2.9-2 1.3-3.6.6-4 .9-4.1 3.8-.1 2.3.4 3.4 2 4.1 1.7.9 1.8 1.1.4 1.1-2.4.1-3.5 4.8-1.6 6.8.8.8 2.4 1.6 3.4 1.8 3.1.6 3.1.7-.6 1.4-2.8.5-3.5 1-3.4 2.9 0 1.2-.4 2.2-.9 2.2s-.4.6.3 1.4c.6.8 1.7 1.3 2.5 1 .7-.3 3.2.4 5.5 1.6 4.3 2.2 10.1 2.4 10.7.3.4-1-4.5-4.4-6.2-4.3-3.4.1-3.7-.1-3.3-2.4.3-1.4.1-3-.3-3.7-.4-.7-.3-2.1.3-3.2.8-1.5.5-2.4-1.2-4.2l-2.3-2.4 4.9 1.8c2.7 1 5.7 1.6 6.7 1.3 3.2-.7 1.4-3.6-3.3-5.3l-4.5-1.7.2-15.6c.1-9.1-.3-15.8-.8-16.2-.6-.3-.5-1.1.2-2 .7-.8 1.3-4.8 1.3-9 .2-6.6-.1-7.8-1.9-9-2-1.4-2-1.5.3-2 3-.9 2.8-1.7-1-3.7l-3.3-1.6h3.3c3.8-.1 4.4-2.7 1.2-5.6-1.1-1-2-2.2-2-2.7s.7-.2 1.6.7c2.1 2.1 3.8.1 2.3-2.7-1.1-2.1-1.6-2.2-4.8-.4zm2 21.1c0 1.3-4.1 1.9-4.1.7 0-1.1 2-2.2 3.3-1.8.5.1.8.6.8 1.1zm-1.7 9.1c2.6 1 2 4.4-.8 4.4-1.7 0-2.5-.7-2.8-2.5-.5-2.6.5-3.1 3.6-1.9zm-6.4 3.8c0 .2-1.1.1-2.5-.2-1.4-.2-2.2-.8-1.9-1.3.4-.8 4.4.6 4.4 1.5zm6.9 9.5c1 .6 1 1 .1 1.6-.7.4-1.9 0-2.8-.9-1.4-1.3-1.4-1.6-.2-1.6.8 0 2.1.4 2.9.9zM253 421c2.5 1.5.7 1.8-3.5.5-3.8-1.2-3.9-1.3-1-1.4 1.7 0 3.7.3 4.5.9zm5.4 18.6c.9.3 1.6 1 1.6 1.5 0 1.4-2.6 1-4-.6-1.3-1.6-.3-2 2.4-.9zm10.6 6.2c0 .5-1.3.7-3 .4-1.6-.2-3-.6-3-.8 0-.2 1.4-.4 3-.4 1.7 0 3 .4 3 .8zm-9 4.1c0 1.5-1.6 2.2-3.5 1.5-1.3-.5-1.4-.8-.3-1.5 1.8-1.2 3.8-1.1 3.8 0zm-1 9.1c.8.5 1.2 1.2.8 1.5-1 1-4.9-.5-4.3-1.6.8-1.1 1.6-1.1 3.5.1zm10 6c0 .9-4.8.1-5.5-.9-.2-.4.9-.5 2.6-.3 1.6.2 2.9.8 2.9 1.2z"/><path d="M249.6 398.5c-.3 1 .1 1.5 1.3 1.5 1 0 1.8-.7 1.8-1.5s-.6-1.5-1.3-1.5c-.6 0-1.4.7-1.8 1.5zM225.5 405.5c-3.6 3.4-3.7 3.6-2.1 6 .9 1.3 1.6 3.4 1.6 4.5s.4 2.8.9 3.8c.9 1.5 2 5.7 2.2 7.9.2 1.9 2.4 3.3 5.3 3.4 2.1.1 2.5.3 1.1.6-3.7.9-4.5 2.2-3.2 5.1 1.4 3.3 2.5 4.1 4.8 3.7 1-.2 2.1 0 2.4.6.4.5-.6.9-2.1.9-2.5 0-2.6.2-1.9 3.2.4 1.8.7 3.9.8 4.5 0 .7.4 1.3.9 1.3.4 0 .8 1 .8 2.3 0 1.7-.9 2.7-3.2 3.8-5.2 2.3-4.3 4.4 1.8 4.3 4.5-.1 5.1.1 4.7 1.7-.3 1.1 0 1.9.7 1.9s1 .6.7 1.4c-.3.7.1 2.3.8 3.4.8 1 1.2 2.2.9 2.4-1 1.1 1.9 5.6 4.3 6.7 1.4.7 2.3 1.4 2 1.8-.4.3-1.3.1-2.1-.6-1-.9-1.5-.8-1.9.2-1.5 3.9 2.8 4.9 7 1.8 3.6-2.7 3.5-4.1-.6-4.1-2.6 0-7.8-3.6-6.7-4.7.3-.3 1.3.2 2.2 1.1.9 1 2.3 1.5 3.1 1.2.8-.3 1.7-.6 1.9-.6.2 0 .4-.8.4-1.8 0-2.7-2-4.2-5.8-4.2-1.9 0-3.1-.4-2.7-1 .3-.5 1.9-1 3.6-1 3.1 0 4.2-1.9 1.2-2.1-5-.2-8.3-1.8-4.2-2 1.3-.1 2.7-.1 3.2 0 .4 0 .7-.6.7-1.4 0-1-1-1.5-2.9-1.5-3.4 0-5.3-1.9-2.2-2.1 5.2-.3 5.5-.8 2.8-4.3-1.5-1.9-3.2-2.9-5-2.9-1.5 0-3-.3-3.3-.8-.3-.5.3-.9 1.3-.9 1.1 0 2.8-.7 3.9-1.5 2.1-1.6 1.4-1.9-3.8-1.5-1.6.1-2.8-.3-2.8-.9 0-.6 1.1-1.1 2.4-1.1 3.6 0 4.3-2 1.5-4.1-2-1.6-2.1-1.9-.6-1.9 1.1 0 1.5-.5 1.1-1.1-.3-.6-1.8-.9-3.3-.6-3.3.7-6.2-.7-3.6-1.7.9-.3 2.5-.6 3.6-.6 2.4 0 2.5-1.8.2-3.6-1.6-1.2-1.5-1.3 1-.4 3.9 1.4 7.2 1.3 8.5-.3 2.8-3.3-3.8-5.4-11.5-3.7-4.3 1-6.3.4-6.3-2 0-1.9 1.7-3 3.8-2.3 1 .4.8.9-.5 1.9-1.7 1.3-1.7 1.3.5 1.4 3 0 4.1-2.9 1.6-4.7-1-.8-2.8-1.3-3.9-1.1-2.3.3-4.5-.8-4.5-2.3 0-.5.8-.4 1.9.2 2.1 1.4 5.1.6 5.1-1.3 0-2.6-1.9-4.1-4.9-4-3.6.1-4.8-1.3-3.1-3.3 1.7-2.1 3.7-1.9 4.3.5.6 2.2 2.7 2.8 2.7.7 0-.9 1-1.2 3-.9 2.1.3 3.2 0 3.6-1.3.9-2.3-.6-3.5-4.7-3.8-1.9-.2-3.9-.6-4.5-1-.6-.3-2.8.9-4.9 2.8zm11.8 1.2c-.7.2-2.1.2-3 0-1-.3-.4-.5 1.2-.5 1.7 0 2.4.2 1.8.5zm-5.8 8.3c.3.5.2 1-.4 1-.5 0-1.3-.5-1.6-1-.3-.6-.2-1 .4-1 .5 0 1.3.4 1.6 1zm14.1 13.3c.4.4-.8.7-2.7.7-2.3 0-3-.3-2-.9 1.5-1 3.7-.9 4.7.2zm-1.8 25.6c1.1.6 1 .9-.5 1.3-2.3.6-4.5-.1-3.7-1.3.7-1.1 2.5-1.1 4.2 0zm-3 4.6c-1.1 1.1-6.8 2.3-6.8 1.5 0-.5 1-1.1 2.3-1.3 3.5-.7 5.1-.7 4.5-.2zm10.2 14.1c0 .2-.7.4-1.5.4s-1.5-.4-1.5-1c0-.5.7-.7 1.5-.4.8.4 1.5.8 1.5 1z"/><path d="M246.6 444.7c-1.2 1.2-.6 3.3.9 3.3.8 0 1.5-.6 1.5-1.4 0-1.7-1.4-2.8-2.4-1.9z"/></svg>