<?xml version="1.0" standalone="no"?>
<!DOCTYPE svg PUBLIC "-//W3C//DTD SVG 20010904//EN"
 "http://www.w3.org/TR/2001/REC-SVG-20010904/DTD/svg10.dtd">
<svg version="1.0" xmlns="http://www.w3.org/2000/svg"
 width="374.000000pt" height="374.000000pt" viewBox="0 0 374.000000 374.000000"
 preserveAspectRatio="xMidYMid meet">
<metadata>
Created by potrace 1.11, written by Peter Selinger 2001-2013
</metadata>
<g transform="translate(0.000000,374.000000) scale(0.100000,-0.100000)"
fill="#000000" stroke="none">
<path d="M1862 3673 c-6 -2 -10 -9 -6 -14 3 -5 -6 -5 -21 1 -21 8 -27 7 -31
-8 -9 -28 -22 -47 -31 -45 -10 2 -9 -53 2 -84 4 -13 12 -23 17 -23 5 0 0 -12
-12 -27 -11 -14 -17 -29 -12 -32 5 -3 8 -14 6 -23 -1 -10 5 -22 14 -27 14 -8
14 -13 3 -37 -7 -16 -21 -34 -32 -42 -10 -7 -19 -24 -19 -37 0 -13 -5 -27 -12
-31 -6 -4 -8 -3 -5 2 3 5 -3 10 -13 10 -12 0 -16 -4 -10 -11 6 -8 -1 -11 -23
-10 -25 0 -32 -4 -32 -20 0 -14 -7 -20 -21 -20 -25 -1 -56 -29 -46 -41 4 -5 3
-6 -2 -1 -13 10 -46 -22 -46 -45 0 -10 -5 -18 -11 -18 -5 0 -8 -4 -4 -9 3 -6
-5 -20 -17 -32 -13 -12 -16 -18 -8 -14 8 4 -3 -10 -25 -30 -22 -21 -34 -35
-27 -31 17 10 15 -5 -7 -38 -11 -17 -17 -34 -15 -38 7 -11 -16 -39 -26 -33 -5
3 -11 1 -15 -5 -3 -5 -1 -10 5 -10 6 0 4 -10 -6 -25 -10 -16 -12 -25 -5 -25 8
0 7 -11 -3 -35 -10 -22 -11 -35 -4 -35 7 0 6 -5 -2 -15 -6 -8 -17 -13 -23 -12
-7 1 -11 -8 -9 -21 2 -13 -2 -30 -9 -38 -18 -22 -20 -57 -2 -43 10 9 12 0 10
-50 -1 -34 1 -61 5 -61 12 0 38 -57 30 -65 -4 -5 1 -5 10 -2 12 4 16 1 13 -14
-2 -10 0 -19 4 -19 5 0 7 -11 6 -25 -2 -14 1 -23 6 -19 5 3 9 0 9 -6 0 -7 6
-10 13 -7 8 3 20 1 28 -4 8 -5 9 -9 2 -9 -18 0 -3 -40 23 -56 12 -9 26 -29 29
-45 4 -17 11 -26 17 -23 6 4 8 1 6 -7 -3 -8 1 -29 8 -47 7 -18 9 -30 4 -27 -6
3 -10 -1 -10 -10 0 -10 7 -15 18 -13 11 2 16 -3 14 -15 -2 -9 2 -16 9 -15 6 2
13 -6 15 -16 4 -27 57 -69 64 -51 3 9 10 11 19 6 7 -5 10 -14 7 -20 -4 -6 -3
-11 2 -11 6 0 8 -9 5 -21 -4 -14 -1 -20 8 -19 29 4 48 0 63 -16 9 -8 16 -12
16 -7 0 4 8 -4 18 -20 10 -15 21 -25 24 -22 3 3 11 -8 18 -25 7 -16 18 -30 24
-30 6 0 31 -20 55 -45 24 -24 48 -42 53 -39 4 3 8 -1 8 -9 0 -7 14 -29 30 -47
17 -18 30 -30 30 -26 0 5 6 3 13 -3 8 -6 18 -7 22 -3 5 4 5 2 2 -4 -4 -7 0
-15 9 -18 13 -5 14 -9 4 -20 -9 -12 -6 -18 20 -31 17 -9 35 -13 40 -10 5 3 7
-4 5 -15 -2 -11 1 -20 6 -20 6 0 7 -5 4 -10 -10 -16 5 -52 20 -46 9 3 12 -4
11 -24 -1 -16 1 -27 5 -24 4 2 10 -5 14 -16 4 -11 10 -18 14 -15 4 2 18 -7 29
-20 12 -14 19 -25 16 -25 -3 0 4 -17 16 -37 12 -20 19 -44 17 -53 -5 -20 11
-44 37 -53 10 -4 16 -13 13 -22 -4 -9 -1 -12 8 -9 9 4 13 -4 11 -30 -1 -20 1
-36 5 -36 3 0 4 -11 1 -25 -3 -16 0 -25 8 -25 7 0 10 -7 6 -16 -3 -8 -2 -13 3
-9 5 3 8 -16 6 -43 -2 -46 -1 -49 21 -46 14 1 21 -2 19 -9 -10 -27 -12 -147
-3 -147 6 0 3 -11 -6 -24 -15 -23 -14 -26 10 -43 26 -19 25 -53 -2 -53 -7 0
-20 -13 -29 -30 -9 -16 -20 -30 -25 -30 -5 0 -16 -13 -25 -30 -9 -16 -12 -30
-7 -30 16 0 0 -61 -19 -71 -11 -5 -19 -7 -19 -4 0 4 -14 -3 -30 -15 -24 -17
-28 -25 -20 -35 8 -9 8 -15 0 -20 -5 -3 -10 -3 -10 0 0 4 -7 -1 -16 -9 -8 -9
-20 -14 -25 -11 -5 4 -9 2 -9 -4 0 -6 -6 -8 -14 -5 -9 3 -17 -3 -21 -15 -3
-11 -12 -20 -18 -18 -7 1 -11 -5 -9 -14 1 -12 -6 -15 -30 -13 -18 1 -37 3 -43
4 -15 5 -46 -11 -40 -20 6 -10 -24 -22 -35 -15 -5 3 -12 0 -16 -6 -4 -8 -3 -9
4 -5 23 14 11 -2 -12 -18 -23 -14 -61 -13 -52 3 2 3 -9 6 -24 6 -22 0 -26 -3
-17 -13 8 -10 7 -12 -3 -10 -8 2 -14 -3 -15 -9 0 -17 -9 -17 -45 2 -17 9 -30
11 -30 6 0 -6 -6 -8 -12 -6 -23 8 -50 -23 -58 -65 -4 -22 -5 -39 -3 -36 3 3
29 -8 59 -25 30 -16 54 -25 54 -21 0 8 90 9 115 1 16 -4 65 12 65 22 0 4 9 6
20 4 11 -2 20 0 20 5 0 5 10 6 23 4 39 -9 96 -11 91 -3 -2 4 5 10 16 14 11 4
18 11 14 16 -3 5 -2 9 3 8 4 -1 10 0 13 1 3 1 19 3 35 6 17 2 36 4 43 5 8 1
27 15 44 31 16 15 34 25 39 22 5 -3 9 -1 9 5 0 5 9 8 20 6 11 -2 19 -1 17 3
-2 7 73 85 86 90 4 1 12 2 18 2 5 0 7 4 4 10 -3 5 -1 10 5 10 7 0 10 7 6 15
-5 15 -3 17 36 19 14 1 22 9 25 26 7 41 8 45 16 57 4 7 15 9 24 6 13 -5 15 -2
10 11 -4 10 -7 20 -7 22 0 3 -4 2 -10 -1 -10 -6 -2 25 9 35 17 15 50 90 40 90
-8 0 -8 4 1 15 13 15 21 125 10 125 -11 0 -2 138 10 159 8 15 8 21 0 21 -6 0
-9 4 -5 9 3 5 1 13 -5 16 -8 5 -8 11 0 20 8 9 7 17 -3 27 -8 7 -13 21 -11 31
1 9 -2 17 -7 17 -5 0 -5 10 0 23 9 23 -9 64 -22 51 -3 -4 -6 2 -7 12 -3 94 -4
103 -15 94 -7 -6 -11 -3 -12 9 -1 10 -15 38 -31 62 -16 24 -32 57 -36 72 -4
15 -10 26 -14 23 -5 -3 -8 5 -9 17 -1 48 -23 83 -47 74 -20 -8 -28 4 -14 22 7
9 8 13 4 9 -5 -4 -15 0 -23 10 -9 10 -12 11 -7 2 4 -8 -7 -2 -24 14 -18 17
-32 35 -32 42 0 16 -29 46 -39 40 -4 -3 -8 1 -8 9 0 8 4 12 8 9 4 -2 -2 13
-14 35 -12 22 -28 38 -36 36 -9 -1 -21 4 -28 11 -7 7 -16 14 -20 16 -12 5 -65
79 -56 77 25 -4 22 5 -11 36 -21 19 -41 33 -45 31 -4 -3 -8 0 -9 7 -3 36 -11
51 -33 63 -13 7 -18 13 -11 14 7 0 10 4 7 10 -4 6 1 7 11 3 12 -4 15 -3 10 5
-5 8 -1 10 10 5 11 -4 15 -2 11 4 -4 6 3 9 18 8 14 -2 26 3 29 12 4 9 13 13
22 9 13 -5 14 -4 6 7 -9 11 -8 13 6 12 9 0 24 -5 31 -10 9 -5 12 -4 7 3 -3 6
2 15 11 21 10 6 14 11 10 11 -5 0 -2 7 7 15 8 8 13 24 11 34 -2 11 4 26 13 33
13 11 15 11 8 -2 -4 -8 1 -5 12 7 11 12 22 19 26 16 3 -4 6 1 6 10 0 10 8 17
19 17 23 0 34 15 36 47 0 12 9 29 19 36 11 8 17 21 14 28 -4 11 2 14 21 13 32
-2 47 6 32 16 -8 4 -5 15 9 33 12 15 18 27 15 27 -4 0 -2 7 5 15 10 12 10 15
0 15 -10 0 -9 5 3 18 22 24 39 72 26 72 -6 0 -8 4 -5 8 11 17 14 62 5 62 -6 0
-6 8 1 20 6 12 7 20 1 20 -9 0 -8 25 3 78 3 12 0 22 -5 22 -6 0 -6 7 -1 18 5
9 8 25 6 35 -6 24 -12 51 -14 57 -1 3 -2 8 -1 13 0 4 -4 7 -10 7 -5 0 -7 5 -4
10 4 6 2 16 -3 23 -6 7 -10 14 -10 17 2 13 -14 50 -21 50 -5 0 -6 11 -4 25 4
19 0 25 -21 31 -14 3 -26 9 -27 13 -5 43 -35 91 -56 91 -8 0 -12 4 -9 9 3 4
-8 19 -24 31 -17 13 -30 29 -30 37 0 8 -6 13 -12 10 -13 -5 -88 32 -88 43 0 3
-11 7 -25 8 -14 1 -36 12 -49 25 -13 13 -37 29 -55 36 -17 8 -31 19 -31 26 0
7 -6 15 -14 18 -10 4 -13 22 -12 66 2 34 -1 61 -5 61 -5 0 -1 17 7 38 11 24
12 33 3 25 -9 -10 -17 -7 -35 10 -18 17 -20 25 -12 42 10 18 10 19 -6 6 -9 -8
-16 -10 -15 -5 4 23 -2 36 -16 30 -8 -3 -20 3 -27 12 -14 18 -34 24 -56 15z
m88 -550 c0 -9 3 -14 6 -10 4 3 19 0 35 -9 16 -8 32 -14 36 -14 5 0 16 -7 26
-15 9 -8 17 -12 17 -8 0 3 11 -6 25 -21 14 -15 25 -24 25 -21 0 4 16 -9 35
-29 19 -20 39 -36 45 -36 5 0 9 -3 9 -7 -3 -19 2 -34 9 -29 7 4 9 -4 15 -58 2
-20 5 -22 16 -13 12 9 13 9 7 -1 -4 -7 -2 -19 4 -27 6 -8 8 -20 4 -27 -6 -10
-5 -11 7 -1 12 10 14 7 13 -15 0 -15 -2 -29 -3 -32 -8 -17 -8 -40 0 -40 6 0 5
-8 -1 -20 -9 -16 -8 -18 5 -14 8 4 15 1 15 -6 0 -6 4 -9 8 -6 9 6 7 -47 -3
-63 -3 -6 -2 -11 3 -11 15 0 7 -71 -9 -81 -8 -5 -11 -9 -6 -9 4 0 -2 -17 -13
-37 -13 -25 -16 -39 -9 -44 8 -5 8 -8 0 -13 -6 -4 -11 -16 -11 -28 0 -17 -2
-19 -16 -8 -12 11 -15 11 -12 -1 2 -8 -2 -13 -8 -12 -7 1 -10 -6 -7 -16 3 -12
-5 -24 -24 -37 -50 -33 -75 -44 -87 -37 -6 4 -4 -2 4 -12 8 -10 10 -16 3 -12
-13 8 -65 -12 -58 -22 2 -4 -6 -7 -18 -8 -74 -1 -87 -4 -84 -15 1 -7 -6 -12
-15 -10 -10 2 -18 -2 -18 -8 0 -6 -5 -8 -12 -4 -6 4 -32 6 -58 5 -35 -1 -49 3
-54 14 -3 8 -12 15 -21 15 -8 0 -15 5 -15 11 0 5 6 7 13 4 6 -4 3 0 -7 9 -10
8 -23 13 -27 10 -4 -2 -6 5 -4 16 2 11 0 20 -5 20 -5 0 -7 8 -3 18 3 9 3 14
-2 10 -4 -4 -14 0 -22 8 -8 8 -18 12 -23 9 -4 -3 -10 5 -13 16 -3 12 -10 19
-14 16 -5 -3 -10 6 -11 21 -2 29 -66 97 -81 87 -12 -7 -6 26 10 57 7 13 12 24
10 25 -1 2 -13 15 -26 29 -30 33 -31 40 -4 54 14 8 17 15 11 23 -5 7 -8 23 -6
37 3 14 5 31 6 38 1 6 5 12 9 12 6 0 20 38 23 62 1 3 5 10 10 15 5 5 6 2 1 -6
-5 -9 -4 -12 3 -7 7 4 12 16 12 26 0 10 7 26 16 34 9 9 17 22 19 29 8 36 28
76 36 71 5 -3 13 5 18 18 4 13 11 22 15 21 15 -6 27 -2 21 7 -3 6 1 10 9 10 9
0 35 14 58 30 22 17 45 30 50 30 11 0 38 25 38 36 0 11 34 33 42 28 5 -3 8
-12 8 -21z"/>
<path d="M1900 2819 c0 -6 -7 -8 -16 -5 -8 3 -13 2 -9 -3 3 -5 -8 -19 -25 -31
-16 -12 -30 -30 -30 -41 0 -11 -3 -18 -7 -16 -14 7 -48 -39 -47 -63 0 -14 -4
-33 -9 -43 -5 -11 -4 -23 2 -31 6 -7 8 -15 5 -19 -3 -3 11 -5 33 -4 22 1 37
-2 36 -9 -1 -6 11 -18 28 -28 16 -9 29 -13 29 -7 0 5 9 8 20 6 11 -2 20 0 20
4 0 4 16 7 34 6 19 -1 33 2 31 6 -3 4 2 10 11 13 9 3 12 2 8 -5 -3 -6 3 -5 14
2 11 7 19 20 17 28 -1 9 2 26 6 39 5 13 5 22 -1 22 -5 0 -7 9 -5 20 2 11 -1
20 -7 20 -6 0 -4 8 5 18 21 23 21 32 2 32 -9 0 -18 7 -21 15 -4 8 -10 12 -15
9 -5 -3 -9 1 -9 9 0 8 -13 20 -29 27 -16 6 -32 18 -35 26 -6 17 -36 19 -36 3z"/>
<path d="M1505 2140 c-3 -5 -1 -10 4 -10 6 0 11 5 11 10 0 6 -2 10 -4 10 -3 0
-8 -4 -11 -10z"/>
<path d="M1401 1883 c7 -7 9 -16 5 -20 -3 -3 -6 -1 -6 6 0 8 -6 11 -16 7 -10
-4 -13 -2 -9 7 4 6 0 4 -8 -5 -8 -10 -17 -15 -21 -11 -7 7 -107 -97 -102 -106
6 -12 -31 -37 -52 -36 -12 1 -20 0 -17 -3 2 -2 -6 -13 -18 -23 -12 -10 -19
-18 -15 -19 14 0 -26 -40 -40 -40 -7 0 -10 -4 -7 -10 6 -9 -9 -26 -73 -79 -17
-14 -29 -32 -27 -40 1 -9 -2 -22 -8 -28 -5 -7 -6 -13 -2 -13 4 0 -4 -19 -17
-42 -26 -45 -26 -50 -15 -85 8 -21 37 -40 37 -23 0 5 9 7 20 5 14 -3 20 2 20
15 0 10 5 22 12 26 7 5 8 3 3 -7 -5 -8 8 -1 28 14 20 15 42 25 47 22 6 -3 10
-1 10 4 0 6 3 10 8 10 18 -3 33 2 28 10 -7 11 38 53 47 44 4 -3 7 2 7 11 0 12
5 16 15 12 10 -3 15 1 15 12 0 20 20 44 68 82 18 14 32 34 32 47 0 17 5 21 25
18 14 -1 23 0 20 3 -2 3 9 18 25 34 16 15 30 30 30 33 0 3 0 12 0 21 0 13 3
14 14 5 11 -10 17 -7 30 11 11 15 12 24 5 29 -7 4 -8 8 -1 10 13 5 23 69 11
69 -6 0 -7 6 -3 13 4 6 4 9 -1 5 -4 -4 -14 -3 -22 3 -7 7 -31 13 -53 14 -33 2
-38 0 -29 -12z"/>
<path d="M1662 1453 c-6 -2 -9 -10 -5 -16 3 -7 3 -9 -1 -6 -11 10 -91 -18 -88
-30 1 -6 -3 -11 -9 -11 -6 0 -9 -6 -6 -12 2 -7 -4 -30 -15 -50 -10 -21 -16
-38 -12 -38 4 0 1 -7 -6 -15 -7 -9 -15 -14 -17 -11 -2 2 -16 -7 -30 -20 -14
-13 -30 -21 -36 -17 -6 3 -7 1 -3 -5 4 -7 -11 -31 -34 -55 -22 -24 -40 -51
-40 -60 0 -9 -8 -21 -17 -26 -10 -6 -13 -11 -8 -11 6 0 4 -4 -4 -9 -7 -5 -15
-20 -16 -34 -2 -14 -5 -30 -8 -34 -3 -4 12 -21 34 -36 21 -16 39 -24 39 -19 0
6 9 8 20 5 15 -4 20 0 20 16 0 13 4 19 11 16 6 -4 9 0 7 11 -2 12 3 19 12 19
17 0 58 38 89 83 12 17 29 32 36 32 8 0 17 5 21 12 5 7 2 9 -7 4 -8 -4 -4 1 9
10 12 9 22 22 22 29 0 8 19 24 43 37 23 13 42 30 42 37 0 8 9 19 20 25 30 17
44 39 35 56 -5 8 -4 22 1 32 7 13 0 26 -31 58 -39 40 -44 43 -68 33z m-112
-333 c0 -5 -5 -10 -11 -10 -5 0 -7 5 -4 10 3 6 8 10 11 10 2 0 4 -4 4 -10z"/>
<path d="M2060 1011 c0 -7 -4 -10 -9 -6 -5 3 -12 1 -16 -4 -4 -7 -15 -7 -30
-1 -14 5 -25 6 -25 1 0 -4 -12 -6 -26 -3 -18 3 -25 1 -20 -6 4 -6 -1 -8 -13
-5 -29 7 -101 -42 -101 -70 0 -24 -13 -28 -32 -10 -10 9 -21 13 -25 10 -3 -4
-1 -7 6 -7 23 0 -8 -39 -47 -59 -37 -20 -72 -53 -72 -71 0 -5 -5 -12 -12 -16
-6 -4 -8 -3 -5 4 5 6 -1 8 -14 5 -14 -4 -17 -9 -10 -16 7 -7 7 -16 0 -29 -6
-12 -6 -18 0 -18 6 0 8 -7 5 -15 -4 -8 -9 -13 -13 -10 -14 8 -49 -25 -46 -42
1 -10 -3 -24 -9 -32 -6 -7 -11 -29 -11 -47 -1 -19 -4 -36 -7 -40 -4 -3 1 -14
10 -25 22 -25 87 -10 87 22 0 5 2 8 5 7 11 -3 50 23 50 35 0 16 59 49 73 40 8
-4 7 -1 -1 9 -11 13 -10 16 5 14 13 -1 19 7 21 27 2 15 8 27 13 27 6 0 7 6 3
13 -5 7 0 6 11 -3 10 -8 17 -10 14 -5 -3 6 9 24 25 40 16 17 26 23 21 15 -6
-11 -3 -10 12 3 11 9 25 17 31 17 7 0 12 5 12 11 0 5 5 7 10 4 9 -5 14 9 8 19
-2 2 30 35 70 74 69 67 79 84 70 124 -5 22 -18 36 -18 19z"/>
</g>
</svg>
